<?xml version="1.0" encoding="UTF-8"?>
<svg version="1.1" xmlns="http://www.w3.org/2000/svg" width="50" height="50">
<path d="M0 0 C0 0.66 0 1.32 0 2 C2.64 2 5.28 2 8 2 C8 1.34 8 0.68 8 0 C13.22971874 -0.31378312 16.58573719 0.09059951 21 3 C26.20713794 9.3642797 27.64039041 18.64360984 27.42578125 26.640625 C27 29 27 29 24.6875 31.625 C20.25126146 33.89470344 16.94156187 34.09323702 12 34 C11.67 33.34 11.34 32.68 11 32 C6.38 32 1.76 32 -3 32 C-3.33 32.66 -3.66 33.32 -4 34 C-9.25830521 34.31549831 -12.47929032 33.73345236 -17 31 C-19.49436223 28.50563777 -19.32440956 27.64282701 -19.375 24.1875 C-19.2430095 17.51758 -17.88830888 11.03317242 -15 5 C-10.11805384 0.3974657 -6.58922917 -0.12432508 0 0 Z M-8 7 C-9.32 7 -10.64 7 -12 7 C-12.48198463 8.24891614 -12.96045677 9.49918808 -13.4375 10.75 C-13.70433594 11.44609375 -13.97117187 12.1421875 -14.24609375 12.859375 C-15.96894754 17.75120857 -16.32887712 21.82018541 -16 27 C-15.08333333 29.08333333 -15.08333333 29.08333333 -13 30 C-9.38976901 30.73041853 -9.38976901 30.73041853 -6 31 C-7.63412443 29.29159719 -8.86906094 28.06546953 -11 27 C-11.33 26.01 -11.66 25.02 -12 24 C-11.26910156 24.433125 -11.26910156 24.433125 -10.5234375 24.875 C-3.50232198 28.5515114 3.18648547 28.93402932 11 28 C14.22601038 26.99132829 17.09477054 25.72161746 20 24 C18.75453595 27.73639216 17.36595047 28.18756513 14 30 C15.74671588 30.79356801 15.74671588 30.79356801 18 31 C20.24356294 29.85213059 22.2095767 28.7904233 24 27 C24.51423517 19.92926635 23.18680648 13.37361296 20 7 C18.01014051 6.61067967 16.00800456 6.28112064 14 6 C13.01 5.67 12.02 5.34 11 5 C8.71067322 4.87906505 6.41748676 4.82461674 4.125 4.8125 C2.91070313 4.79832031 1.69640625 4.78414062 0.4453125 4.76953125 C-2.8844904 4.99227317 -4.97531448 5.70297383 -8 7 Z " fill="#000000" transform="translate(21,7)"/>
<path d="M0 0 C3.5 0.125 3.5 0.125 4.5 1.125 C4.6328125 2.9375 4.6328125 2.9375 4.625 5.125 C4.62757812 5.846875 4.63015625 6.56875 4.6328125 7.3125 C4.5 9.125 4.5 9.125 3.5 10.125 C0 10.25 0 10.25 -3.5 10.125 C-4.5 9.125 -4.5 9.125 -4.6328125 7.3125 C-4.63023438 6.590625 -4.62765625 5.86875 -4.625 5.125 C-4.62757812 4.403125 -4.63015625 3.68125 -4.6328125 2.9375 C-4.38695302 -0.41775884 -3.46989412 0.12392479 0 0 Z M-1.5 3.125 C-1.5 4.445 -1.5 5.765 -1.5 7.125 C-0.51 7.125 0.48 7.125 1.5 7.125 C1.5 5.805 1.5 4.485 1.5 3.125 C0.51 3.125 -0.48 3.125 -1.5 3.125 Z " fill="#000000" transform="translate(31.5,20.875)"/>
<path d="M0 0 C3.5 0.125 3.5 0.125 4.5 1.125 C4.6328125 2.9375 4.6328125 2.9375 4.625 5.125 C4.62757812 5.846875 4.63015625 6.56875 4.6328125 7.3125 C4.5 9.125 4.5 9.125 3.5 10.125 C0 10.25 0 10.25 -3.5 10.125 C-4.5 9.125 -4.5 9.125 -4.6328125 7.3125 C-4.63023438 6.590625 -4.62765625 5.86875 -4.625 5.125 C-4.62757812 4.403125 -4.63015625 3.68125 -4.6328125 2.9375 C-4.38695302 -0.41775884 -3.46989412 0.12392479 0 0 Z M-1.5 3.125 C-1.5 4.445 -1.5 5.765 -1.5 7.125 C-0.51 7.125 0.48 7.125 1.5 7.125 C1.5 5.805 1.5 4.485 1.5 3.125 C0.51 3.125 -0.48 3.125 -1.5 3.125 Z " fill="#000000" transform="translate(18.5,20.875)"/>
</svg>
