<svg width="1644" height="1277" viewBox="0 0 1644 1277" fill="none" xmlns="http://www.w3.org/2000/svg">
<path d="M1350.28 159.262C1251.26 113.955 1146.09 80.9334 1036.32 62.5031C1022.5 86.3092 1007.15 118.562 996.403 143.904C879.645 127.009 763.729 127.009 648.584 143.904C637.837 118.562 621.715 86.3092 608.665 62.5031C498.127 80.9334 392.96 113.955 294.627 159.262C95.8087 452.611 42.0736 739.048 68.9409 1021.64C200.974 1117.63 328.403 1176 453.605 1214.4C484.31 1172.93 511.946 1128.39 535.743 1081.54C490.452 1064.65 447.465 1043.92 406.012 1019.34C416.759 1011.67 427.506 1003.22 437.486 994.769C687.735 1109.2 958.786 1109.2 1205.97 994.769C1216.71 1003.22 1226.69 1011.67 1237.44 1019.34C1195.99 1043.92 1153 1064.65 1107.71 1081.54C1131.5 1128.39 1159.14 1172.93 1189.85 1214.4C1314.97 1176 1443.17 1117.63 1574.51 1021.64C1607.52 694.513 1522.23 410.377 1350.28 159.262ZM570.286 847.326C495.056 847.326 433.646 778.983 433.646 695.276C433.646 611.576 493.521 543.226 570.286 543.226C646.281 543.226 708.458 611.576 706.922 695.276C706.922 778.983 646.281 847.326 570.286 847.326ZM1074.7 847.326C999.468 847.326 937.981 778.983 937.981 695.276C937.981 611.576 997.935 543.226 1074.7 543.226C1150.7 543.226 1212.88 611.576 1211.34 695.276C1211.34 778.983 1151.47 847.326 1074.7 847.326Z" stroke="black" stroke-width="125" stroke-linejoin="round"/>
</svg>
