<svg width="1024" height="567" viewBox="0 0 1024 567" fill="none" xmlns="http://www.w3.org/2000/svg">
<path d="M231.355 77.5487H192.896C187.927 77.5487 182.759 78.1452 177.392 79.3383C172.225 80.3325 167.454 82.0226 163.082 84.4087C158.709 86.7948 155.131 89.8769 152.349 93.6549C149.566 97.4329 148.175 102.006 148.175 107.375V212.662C148.175 227.973 145.988 241.494 141.616 253.226C137.243 264.759 131.578 274.801 124.622 283.351C132.97 294.088 138.833 305.621 142.212 317.949C145.79 330.278 147.578 341.811 147.578 352.548V458.134C147.578 465.093 149.367 470.661 152.945 474.836C156.523 478.813 160.796 481.895 165.765 484.083C170.734 486.071 175.703 487.363 180.672 487.96C185.641 488.358 189.517 488.557 192.299 488.557H230.759V567H191.703C183.554 567 174.808 566.105 165.467 564.316C156.324 562.725 147.181 560.041 138.038 556.263C129.094 552.683 120.448 548.011 112.1 542.244C103.951 536.478 96.6962 529.518 90.3359 521.366C84.1744 513.213 79.2054 503.867 75.429 493.329C71.8513 482.79 70.0625 470.86 70.0625 457.537V353.145C70.0625 342.606 67.2799 334.752 61.7146 329.582C56.3481 324.412 48.7953 321.827 39.0561 321.827C33.4909 321.827 28.3231 320.833 23.5529 318.844C18.7827 316.657 14.6088 313.873 11.0311 310.493C7.65222 306.914 4.96897 302.738 2.98138 297.966C0.993794 293.194 0 288.123 0 282.754C0 277.386 0.993794 272.415 2.98138 267.841C4.96897 263.069 7.65222 258.993 11.0311 255.612C14.6088 252.033 18.6833 249.249 23.2548 247.261C28.025 245.074 33.0934 243.881 38.4599 243.682C49.1928 243.682 57.2426 241.097 62.6091 235.927C67.9755 230.558 70.6588 222.803 70.6588 212.662V107.375C70.6588 90.2746 74.1371 75.0631 81.0936 61.7407C88.0502 48.4182 97.2925 37.1836 108.82 28.0368C120.349 18.8901 133.367 11.9306 147.877 7.15833C162.585 2.38611 177.591 0 192.896 0H231.355V77.5487Z" fill="#C0C0C0"/>
<path d="M709.431 22.2125C712.412 29.172 716.174 36.6702 714.982 44.4251C713.789 51.9811 709.048 66.822 703.88 72.1908L437.442 488.557L714.982 489.451V567L354.18 564.316C346.627 564.316 338.536 560.438 331.977 556.263C325.617 551.888 318.505 545.614 315.325 538.654C311.946 531.695 308.581 518.444 309.774 510.888C311.165 503.332 310.356 494.124 315.325 488.557L592.864 77.5487H309.774V0H670.575C678.128 0 686.418 1.1786 692.779 5.55314C699.338 9.72883 706.251 15.2531 709.431 22.2125Z" fill="url(#paint0_linear_2_9)"/>
<path d="M1024 282.754C1024 288.123 1023.01 293.194 1021.02 297.966C1019.03 302.738 1016.25 306.914 1012.67 310.493C1009.29 313.873 1005.22 316.657 1000.45 318.844C995.876 320.833 990.907 321.827 985.54 321.827C975.404 321.827 967.553 324.412 961.987 329.582C956.621 334.752 953.938 342.606 953.938 353.145L954.534 457.537C954.534 470.86 952.646 482.79 948.869 493.329C945.093 503.867 940.024 513.213 933.664 521.366C927.304 529.518 919.95 536.478 911.602 542.244C903.453 548.011 894.807 552.683 885.664 556.263C876.72 560.041 867.577 562.725 858.235 564.316C849.092 566.105 840.446 567 832.297 567H793.4V489.451L832.297 488.557C834.881 488.557 838.657 488.358 843.626 487.96C848.595 487.363 853.465 486.071 858.235 484.083C863.204 481.895 867.477 478.813 871.055 474.836C874.633 470.661 876.422 465.093 876.422 458.134V352.548C876.422 341.811 878.21 330.278 881.788 317.949C885.564 305.621 891.428 294.088 899.378 283.351C892.422 274.801 886.658 264.759 882.086 253.226C877.714 241.494 875.527 227.973 875.527 212.662V107.375C874.533 101.807 872.645 97.1347 869.863 93.3567C867.279 89.5786 863.999 86.4966 860.024 84.1105C856.049 81.7244 851.577 80.0342 846.608 79.04C841.838 78.0458 836.869 77.5487 831.701 77.5487H792.645V0H831.701C847.8 0 863.204 2.58495 877.912 7.75486C892.62 12.7259 905.54 19.9837 916.67 29.5282C927.999 38.8738 936.944 50.2078 943.503 63.5303C950.062 76.6539 953.341 91.2688 953.341 107.375C953.341 108.767 953.441 118.212 953.639 135.71C953.838 153.009 953.938 178.66 953.938 212.662C953.938 222.803 956.521 230.558 961.689 235.927C966.857 241.097 974.807 243.682 985.54 243.682C990.907 243.881 995.876 245.074 1000.45 247.261C1005.22 249.249 1009.29 252.033 1012.67 255.612C1016.25 258.993 1019.03 263.069 1021.02 267.841C1023.01 272.415 1024 277.386 1024 282.754Z" fill="#C0C0C0"/>
<defs>
<linearGradient id="paint0_linear_2_9" x1="512" y1="0" x2="512" y2="567" gradientUnits="userSpaceOnUse">
<stop offset="0.0001" stop-color="#023DED"/>
<stop offset="1" stop-color="#CF02B7"/>
</linearGradient>
</defs>
</svg>
