<?xml version="1.0" encoding="UTF-8"?>
<svg version="1.1" xmlns="http://www.w3.org/2000/svg" width="499" height="500">
<path d="M0 0 C41.58 0 83.16 0 126 0 C126 10.23 126 20.46 126 31 C177.81 31 229.62 31 283 31 C283 41.23 283 51.46 283 62 C298.84 62.495 298.84 62.495 315 63 C315 73.23 315 83.46 315 94 C325.23 94 335.46 94 346 94 C346 135.58 346 177.16 346 220 C335.77 220 325.54 220 315 220 C315 230.23 315 240.46 315 251 C299.655 251.495 299.655 251.495 284 252 C283.67 262.23 283.34 272.46 283 283 C272.77 283 262.54 283 252 283 C252.0721875 286.68285156 252.144375 290.36570312 252.21875 294.16015625 C252.82659438 326.89577883 253.11152175 359.62527673 253.12338257 392.36668015 C253.12500241 395.31689533 253.12856425 398.26710284 253.13256836 401.21731567 C253.13840767 405.8911924 253.13865781 410.56503639 253.13431931 415.23891449 C253.13332306 416.97405734 253.13390895 418.70920189 253.13615799 420.44434357 C253.13870033 422.82661733 253.13491829 425.20879763 253.12939453 427.59106445 C253.13142128 428.28821595 253.13344803 428.98536745 253.13553619 429.70364475 C253.12083143 433.05614457 252.82263999 435.70944006 252 439 C241.77 439 231.54 439 221 439 C221.07906928 448.40892907 221.07906928 448.40892907 221.18017578 457.81762695 C221.1851709 458.98769287 221.19016602 460.15775879 221.1953125 461.36328125 C221.20578613 462.56251221 221.21625977 463.76174316 221.22705078 464.99731445 C221 468 221 468 219 471 C216.25024414 471.38818359 216.25024414 471.38818359 212.78515625 471.3984375 C211.54185547 471.40230469 210.29855469 471.40617187 209.01757812 471.41015625 C207.05981445 471.39275391 207.05981445 471.39275391 205.0625 471.375 C203.76119141 471.38660156 202.45988281 471.39820313 201.11914062 471.41015625 C199.25225586 471.40435547 199.25225586 471.40435547 197.34765625 471.3984375 C196.20304932 471.39505371 195.05844238 471.39166992 193.87915039 471.38818359 C191 471 191 471 189.11938477 469.78100586 C187.63529269 467.41972959 187.67149887 465.88425437 187.7421875 463.10546875 C187.75636719 462.14962891 187.77054688 461.19378906 187.78515625 460.20898438 C187.81480469 459.21189453 187.84445312 458.21480469 187.875 457.1875 C188.13614833 448.54594712 188.13614833 448.54594712 187 440 C186.37544922 440.00523682 185.75089844 440.01047363 185.10742188 440.01586914 C182.23829176 440.03684076 179.36917785 440.04972376 176.5 440.0625 C175.51773438 440.07087891 174.53546875 440.07925781 173.5234375 440.08789062 C172.55664062 440.09111328 171.58984375 440.09433594 170.59375 440.09765625 C169.71396484 440.10289307 168.83417969 440.10812988 167.92773438 440.11352539 C164.26904341 439.97165654 160.63316638 439.4541458 157 439 C157 387.52 157 336.04 157 283 C146.44 283 135.88 283 125 283 C125 272.44 125 261.88 125 251 C114.77 251 104.54 251 94 251 C94 240.77 94 230.54 94 220 C83.77 220 73.54 220 63 220 C63 178.75 63 137.5 63 95 C42.21 95 21.42 95 0 95 C0 63.65 0 32.3 0 0 Z " fill="#FCE598" transform="translate(125,0)"/>
<path d="M0 0 C10.56 0 21.12 0 32 0 C32 10.23 32 20.46 32 31 C42.23 31 52.46 31 63 31 C63 41.23 63 51.46 63 62 C73.23 62 83.46 62 94 62 C94 62.33 94 62.66 94 63 C83.77 63 73.54 63 63 63 C63.10828125 68.52427734 63.10828125 68.52427734 63.21875 74.16015625 C63.82659438 106.89577883 64.11152175 139.62527673 64.12338257 172.36668015 C64.12500241 175.31689533 64.12856425 178.26710284 64.13256836 181.21731567 C64.13840767 185.8911924 64.13865781 190.56503639 64.13431931 195.23891449 C64.13332306 196.97405734 64.13390895 198.70920189 64.13615799 200.44434357 C64.13870033 202.82661733 64.13491829 205.20879763 64.12939453 207.59106445 C64.13142128 208.28821595 64.13344803 208.98536745 64.13553619 209.70364475 C64.12083143 213.05614457 63.82263999 215.70944006 63 219 C52.77 219 42.54 219 32 219 C32.07906928 228.40892907 32.07906928 228.40892907 32.18017578 237.81762695 C32.1851709 238.98769287 32.19016602 240.15775879 32.1953125 241.36328125 C32.20578613 242.56251221 32.21625977 243.76174316 32.22705078 244.99731445 C32 248 32 248 30 251 C27.25024414 251.38818359 27.25024414 251.38818359 23.78515625 251.3984375 C22.54185547 251.40230469 21.29855469 251.40617188 20.01757812 251.41015625 C18.05981445 251.39275391 18.05981445 251.39275391 16.0625 251.375 C14.76119141 251.38660156 13.45988281 251.39820313 12.11914062 251.41015625 C10.87455078 251.40628906 9.62996094 251.40242187 8.34765625 251.3984375 C6.63074585 251.39336182 6.63074585 251.39336182 4.87915039 251.38818359 C2 251 2 251 0.11938477 249.78100586 C-1.36470731 247.41972959 -1.32850113 245.88425437 -1.2578125 243.10546875 C-1.24363281 242.14962891 -1.22945313 241.19378906 -1.21484375 240.20898438 C-1.18519531 239.21189453 -1.15554688 238.21480469 -1.125 237.1875 C-0.86385167 228.54594712 -0.86385167 228.54594712 -2 220 C-2.62455078 220.00523682 -3.24910156 220.01047363 -3.89257812 220.01586914 C-6.76170824 220.03684076 -9.63082215 220.04972376 -12.5 220.0625 C-13.48226562 220.07087891 -14.46453125 220.07925781 -15.4765625 220.08789062 C-16.92675781 220.09272461 -16.92675781 220.09272461 -18.40625 220.09765625 C-19.72592773 220.10551147 -19.72592773 220.10551147 -21.07226562 220.11352539 C-24.73095659 219.97165654 -28.36683362 219.4541458 -32 219 C-32 167.52 -32 116.04 -32 63 C-42.56 63 -53.12 63 -64 63 C-64 52.44 -64 41.88 -64 31 C-63.67 31 -63.34 31 -63 31 C-63 41.23 -63 51.46 -63 62 C-53.1 62 -43.2 62 -33 62 C-31.57732138 59.15464275 -31.78028131 56.63781448 -31.68359375 53.4609375 C-31.64548584 52.28837402 -31.60737793 51.11581055 -31.56811523 49.90771484 C-31.52501221 48.41191895 -31.48190918 46.91612305 -31.4375 45.375 C-31.293125 40.63125 -31.14875 35.8875 -31 31 C-20.77 31 -10.54 31 0 31 C0 20.77 0 10.54 0 0 Z " fill="#BFBDBC" transform="translate(314,220)"/>
<path d="M0 0 C41.58 0 83.16 0 126 0 C126 10.23 126 20.46 126 31 C177.81 31 229.62 31 283 31 C283 31.33 283 31.66 283 32 C231.19 32 179.38 32 126 32 C126 73.25 126 114.5 126 157 C105.21 157 84.42 157 63 157 C63 136.54 63 116.08 63 95 C42.21 95 21.42 95 0 95 C0 63.65 0 32.3 0 0 Z " fill="#EEBD48" transform="translate(125,0)"/>
<path d="M0 0 C21.12 0 42.24 0 64 0 C64.66114367 7.93372404 65.14556621 15.59770568 65.12939453 23.52001953 C65.13202301 25.14179863 65.13202301 25.14179863 65.13470459 26.79634094 C65.13906163 30.32518172 65.13620908 33.85397133 65.1328125 37.3828125 C65.13348681 39.84951792 65.13445791 42.31622327 65.13571167 44.78292847 C65.13717987 49.92853433 65.13506054 55.07412274 65.13037109 60.21972656 C65.12464422 66.8263899 65.12797695 73.43301287 65.13394356 80.03967476 C65.13754733 85.12155464 65.13641195 90.20342486 65.13381577 95.28530502 C65.13314754 97.72306193 65.1339713 100.1608197 65.13629532 102.59857559 C65.13882204 105.99038293 65.13498232 109.38212345 65.12939453 112.77392578 C65.13141876 113.78581467 65.13344299 114.79770355 65.13552856 115.84025574 C65.13270874 116.75963425 65.12988892 117.67901276 65.12698364 118.62625122 C65.1264181 119.82793536 65.1264181 119.82793536 65.12584114 121.05389595 C65 123 65 123 64 125 C64.90355225 124.99476318 65.80710449 124.98952637 66.73803711 124.98413086 C70.07951489 124.96712314 73.42094692 124.95456667 76.76245117 124.94506836 C78.21070073 124.94002899 79.65894517 124.93319747 81.10717773 124.92456055 C83.18474588 124.91247753 85.26224697 124.90676789 87.33984375 124.90234375 C88.59144287 124.89710693 89.84304199 124.89187012 91.13256836 124.88647461 C94 125 94 125 95 126 C95 136.23 95 146.46 95 157 C53.42 157 11.84 157 -31 157 C-31 146.44 -31 135.88 -31 125 C-20.77 125 -10.54 125 0 125 C0 104.87 0 84.74 0 64 C-10.23 64 -20.46 64 -31 64 C-31 53.11 -31 42.22 -31 31 C-20.77 31 -10.54 31 0 31 C0 20.77 0 10.54 0 0 Z " fill="#EBBC49" transform="translate(31,0)"/>
<path d="M0 0 C41.58 0 83.16 0 126 0 C126 10.23 126 20.46 126 31 C105.21 31 84.42 31 63 31 C63 41.23 63 51.46 63 62 C52.77 62 42.54 62 32 62 C32 82.79 32 103.58 32 125 C21.44 125 10.88 125 0 125 C0 83.75 0 42.5 0 0 Z " fill="#FDFDFD" transform="translate(251,32)"/>
<path d="M0 0 C31.02 0 62.04 0 94 0 C94 10.23 94 20.46 94 31 C145.81 31 197.62 31 251 31 C251 31.33 251 31.66 251 32 C199.19 32 147.38 32 94 32 C94 73.25 94 114.5 94 157 C83.77 157 73.54 157 63 157 C63 105.52 63 54.04 63 1 C52.44 1 41.88 1 31 1 C31 21.46 31 41.92 31 63 C20.77 63 10.54 63 0 63 C0 42.21 0 21.42 0 0 Z " fill="#53514D" transform="translate(157,0)"/>
<path d="M0 0 C10.56 0 21.12 0 32 0 C32 10.23 32 20.46 32 31 C42.23 31 52.46 31 63 31 C64.2614449 34.7843347 64.13941346 38.32142825 64.12939453 42.26342773 C64.13202301 43.52728806 64.13202301 43.52728806 64.13470459 44.81668091 C64.13911061 47.60567273 64.13618923 50.39460127 64.1328125 53.18359375 C64.13348596 55.12028516 64.13445634 57.05697648 64.13571167 58.9936676 C64.137187 63.05478723 64.13503959 67.11588488 64.13037109 71.17700195 C64.12467771 76.38359804 64.12795138 81.59014253 64.13394356 86.79673672 C64.13755684 90.79698577 64.13640698 94.79722258 64.13381577 98.797472 C64.13314843 100.71722482 64.13396819 102.63697875 64.13629532 104.55673027 C64.13883396 107.24024268 64.1349639 109.92367155 64.12939453 112.60717773 C64.13141876 113.40159775 64.13344299 114.19601776 64.13552856 115.01451111 C64.12179993 118.58415331 63.87261556 121.50953774 63 125 C52.77 125 42.54 125 32 125 C32.07906928 134.40892907 32.07906928 134.40892907 32.18017578 143.81762695 C32.1851709 144.98769287 32.19016602 146.15775879 32.1953125 147.36328125 C32.20578613 148.56251221 32.21625977 149.76174316 32.22705078 150.99731445 C32 154 32 154 30 157 C27.25024414 157.38818359 27.25024414 157.38818359 23.78515625 157.3984375 C22.54185547 157.40230469 21.29855469 157.40617188 20.01757812 157.41015625 C18.05981445 157.39275391 18.05981445 157.39275391 16.0625 157.375 C14.76119141 157.38660156 13.45988281 157.39820313 12.11914062 157.41015625 C10.87455078 157.40628906 9.62996094 157.40242187 8.34765625 157.3984375 C6.63074585 157.39336182 6.63074585 157.39336182 4.87915039 157.38818359 C2 157 2 157 0.33946228 155.80380249 C-1.48164507 153.35138706 -1.35080185 151.78970947 -1.31054688 148.75097656 C-1.30349731 147.66894958 -1.29644775 146.58692261 -1.28918457 145.47210693 C-1.25431946 143.69927338 -1.25431946 143.69927338 -1.21875 141.890625 C-1.20614136 140.65314514 -1.19353271 139.41566528 -1.18054199 138.14068604 C-1.14302148 134.78448141 -1.09198631 131.42902967 -1.03411865 128.07315063 C-0.97773647 124.64720151 -0.93727527 121.22106306 -0.89453125 117.79492188 C-0.79528458 110.153914 -0.66868037 102.51348371 -0.53643799 94.87298584 C-0.47438855 91.25780048 -0.41504357 87.64257059 -0.35546875 84.02734375 C-0.2397796 77.01817686 -0.11981372 70.00910235 0 63 C10.23 63 20.46 63 31 63 C31 52.44 31 41.88 31 31 C20.77 31 10.54 31 0 31 C0 20.77 0 10.54 0 0 Z " fill="#545354" transform="translate(314,314)"/>
<path d="M0 0 C8.05916691 -0.02094499 16.11823579 -0.04098314 24.17740631 -0.05175018 C27.93005024 -0.05704008 31.68267175 -0.06411391 35.43530273 -0.07543945 C39.04681687 -0.08627141 42.65830921 -0.09227749 46.26983833 -0.09487724 C47.65060329 -0.09673094 49.031367 -0.10035049 50.41212273 -0.10573006 C52.33975952 -0.11294447 54.26741807 -0.11340809 56.19506836 -0.11352539 C57.29427109 -0.115746 58.39347382 -0.11796661 59.52598572 -0.12025452 C62 0 62 0 63 1 C63.08775605 3.14558827 63.10695219 5.29404421 63.09765625 7.44140625 C63.09515869 8.61646729 63.09266113 9.79152832 63.09008789 11.00219727 C63.08098389 12.50709717 63.07187988 14.01199707 63.0625 15.5625 C63.041875 20.326875 63.02125 25.09125 63 30 C73.23 30 83.46 30 94 30 C94 50.79 94 71.58 94 93 C73.54 93 53.08 93 32 93 C32 72.54 32 52.08 32 31 C21.44 31 10.88 31 0 31 C0 20.77 0 10.54 0 0 Z " fill="#F7C954" transform="translate(345,64)"/>
<path d="M0 0 C10.56 0 21.12 0 32 0 C32.66114367 7.93372404 33.14556621 15.59770568 33.12939453 23.52001953 C33.13114685 24.6012056 33.13289917 25.68239166 33.13470459 26.79634094 C33.13906163 30.32518172 33.13620908 33.85397133 33.1328125 37.3828125 C33.13348681 39.84951792 33.13445791 42.31622327 33.13571167 44.78292847 C33.13717987 49.92853433 33.13506054 55.07412274 33.13037109 60.21972656 C33.12464422 66.8263899 33.12797695 73.43301287 33.13394356 80.03967476 C33.13754733 85.12155464 33.13641195 90.20342486 33.13381577 95.28530502 C33.13314754 97.72306193 33.1339713 100.1608197 33.13629532 102.59857559 C33.13882204 105.99038293 33.13498232 109.38212345 33.12939453 112.77392578 C33.13141876 113.78581467 33.13344299 114.79770355 33.13552856 115.84025574 C33.13270874 116.75963425 33.12988892 117.67901276 33.12698364 118.62625122 C33.12660662 119.42737398 33.12622959 120.22849674 33.12584114 121.05389595 C33 123 33 123 32 125 C32.90355225 124.99476318 33.80710449 124.98952637 34.73803711 124.98413086 C38.07951489 124.96712314 41.42094692 124.95456667 44.76245117 124.94506836 C46.21070073 124.94002899 47.65894517 124.93319747 49.10717773 124.92456055 C51.18474588 124.91247753 53.26224697 124.90676789 55.33984375 124.90234375 C56.59144287 124.89710693 57.84304199 124.89187012 59.13256836 124.88647461 C62 125 62 125 63 126 C63.08790975 128.29151417 63.10694038 130.58572524 63.09765625 132.87890625 C63.09515869 134.13517822 63.09266113 135.3914502 63.09008789 136.68579102 C63.08098389 138.29510498 63.07187988 139.90441895 63.0625 141.5625 C63.041875 146.656875 63.02125 151.75125 63 157 C52.44 157 41.88 157 31 157 C31 146.77 31 136.54 31 126 C20.77 126 10.54 126 0 126 C0 84.42 0 42.84 0 0 Z " fill="#52504E" transform="translate(63,0)"/>
<path d="M0 0 C0.33 0 0.66 0 1 0 C2.40027356 43.21479166 2.40027356 43.21479166 1 62 C1.77674072 61.96970703 2.55348145 61.93941406 3.35375977 61.90820312 C23.25439801 61.15124812 43.08086958 60.90820677 63 61 C63 71.56 63 82.12 63 93 C52.77 93 42.54 93 32 93 C32 113.79 32 134.58 32 156 C8 156 8 156 0 155 C0 103.85 0 52.7 0 0 Z " fill="#847B7B" transform="translate(282,284)"/>
<path d="M0 0 C10.23 0 20.46 0 31 0 C31 10.23 31 20.46 31 31 C41.56 31 52.12 31 63 31 C63 41.23 63 51.46 63 62 C51.02196106 62.02254967 39.0439361 62.0409143 27.06588078 62.05181217 C21.50460589 62.05704134 15.94334621 62.06413958 10.38208008 62.07543945 C5.01992581 62.08626715 -0.34221378 62.09227658 -5.70437813 62.09487724 C-7.75500278 62.09673171 -9.8056266 62.10035272 -11.85624504 62.10573006 C-14.71790203 62.11293893 -17.57949757 62.11399101 -20.44116211 62.11352539 C-21.29783478 62.11712067 -22.15450745 62.12071594 -23.03713989 62.12442017 C-28.88594784 62.11405216 -28.88594784 62.11405216 -30 61 C-30.09993532 58.9394469 -30.13080906 56.8754741 -30.1328125 54.8125 C-30.13410156 53.55695313 -30.13539063 52.30140625 -30.13671875 51.0078125 C-30.13462402 50.35071289 -30.1325293 49.69361328 -30.13037109 49.01660156 C-30.12502234 47.00838665 -30.13031691 45.00039541 -30.13671875 42.9921875 C-30.13542969 41.73664063 -30.13414062 40.48109375 -30.1328125 39.1875 C-30.13112061 37.44533203 -30.13112061 37.44533203 -30.12939453 35.66796875 C-30 33 -30 33 -29 32 C-26.85441173 31.91224395 -24.70595579 31.89304781 -22.55859375 31.90234375 C-21.38353271 31.90484131 -20.20847168 31.90733887 -18.99780273 31.90991211 C-17.49290283 31.91901611 -15.98800293 31.92812012 -14.4375 31.9375 C-9.673125 31.958125 -4.90875 31.97875 0 32 C0 21.44 0 10.88 0 0 Z " fill="#FEFDFB" transform="translate(314,157)"/>
<path d="M0 0 C15.84 0.495 15.84 0.495 32 1 C32 11.23 32 21.46 32 32 C42.23 32 52.46 32 63 32 C63 73.58 63 115.16 63 158 C52.77 158 42.54 158 32 158 C32 159.65 32 161.3 32 163 C31.67 163 31.34 163 31 163 C31 161.02 31 159.04 31 157 C41.23 157 51.46 157 62 157 C62 136.54 62 116.08 62 95 C51.77 95 41.54 95 31 95 C31 74.21 31 53.42 31 32 C20.77 32 10.54 32 0 32 C0 21.44 0 10.88 0 0 Z " fill="#FCE598" transform="translate(408,62)"/>
<path d="M0 0 C20.79 0 41.58 0 63 0 C64.31168797 2.62337594 64.12953979 4.58875545 64.1328125 7.5234375 C64.13410156 8.626875 64.13539063 9.7303125 64.13671875 10.8671875 C64.13285156 12.02476562 64.12898438 13.18234375 64.125 14.375 C64.12886719 15.52484375 64.13273437 16.6746875 64.13671875 17.859375 C64.13542969 18.96539062 64.13414062 20.07140625 64.1328125 21.2109375 C64.13168457 22.22462402 64.13055664 23.23831055 64.12939453 24.28271484 C64 27 64 27 63 31 C52.77 31 42.54 31 32 31 C32.07906928 40.40892907 32.07906928 40.40892907 32.18017578 49.81762695 C32.1851709 50.98769287 32.19016602 52.15775879 32.1953125 53.36328125 C32.21102295 55.16212769 32.21102295 55.16212769 32.22705078 56.99731445 C32 60 32 60 30 63 C27.25024414 63.38818359 27.25024414 63.38818359 23.78515625 63.3984375 C21.92020508 63.40423828 21.92020508 63.40423828 20.01757812 63.41015625 C18.05981445 63.39275391 18.05981445 63.39275391 16.0625 63.375 C14.11053711 63.39240234 14.11053711 63.39240234 12.11914062 63.41015625 C10.87455078 63.40628906 9.62996094 63.40242188 8.34765625 63.3984375 C6.63074585 63.39336182 6.63074585 63.39336182 4.87915039 63.38818359 C2 63 2 63 0.1237793 61.8059082 C-1.41449415 59.33390979 -1.35659807 57.61251206 -1.328125 54.70703125 C-1.32361328 53.61616211 -1.31910156 52.52529297 -1.31445312 51.40136719 C-1.29318359 50.21704102 -1.27191406 49.03271484 -1.25 47.8125 C-1.23904297 46.59336914 -1.22808594 45.37423828 -1.21679688 44.11816406 C-1.04577684 29.40672301 -0.51587379 14.70240302 0 0 Z " fill="#80787B" transform="translate(314,408)"/>
<path d="M0 0 C10.23 0 20.46 0 31 0 C31 20.46 31 40.92 31 62 C20.77 62 10.54 62 0 62 C0.33 63.98 0.66 65.96 1 68 C1.07733849 70.08996873 1.10800958 72.18206395 1.09765625 74.2734375 C1.09515869 75.31419434 1.09266113 76.35495117 1.09008789 77.42724609 C1.08098389 78.73000488 1.07187988 80.03276367 1.0625 81.375 C1.041875 85.54125 1.02125 89.7075 1 94 C-9.56 94 -20.12 94 -31 94 C-31 83.44 -31 72.88 -31 62 C-16.15 61.505 -16.15 61.505 -1 61 C-0.67 40.87 -0.34 20.74 0 0 Z " fill="#FDFDFD" transform="translate(439,157)"/>
<path d="M0 0 C10.56 0 21.12 0 32 0 C32 0.33 32 0.66 32 1 C22.43 1.33 12.86 1.66 3 2 C3 11.24 3 20.48 3 30 C33.03 30.33 63.06 30.66 94 31 C94 41.56 94 52.12 94 63 C84.1 63 74.2 63 64 63 C64 52.77 64 42.54 64 32 C53.44 32 42.88 32 32 32 C32 42.23 32 52.46 32 63 C21.77 63 11.54 63 1 63 C1 72.9 1 82.8 1 93 C0.67 93 0.34 93 0 93 C0 62.31 0 31.62 0 0 Z " fill="#EDEBD4" transform="translate(282,188)"/>
<path d="M0 0 C10.56 0 21.12 0 32 0 C32 10.23 32 20.46 32 31 C42.23 31 52.46 31 63 31 C64.04630361 34.13891082 64.12914394 36.36293046 64.1328125 39.65625 C64.13410156 40.76097656 64.13539063 41.86570312 64.13671875 43.00390625 C64.13285156 44.15761719 64.12898438 45.31132812 64.125 46.5 C64.12886719 47.65371094 64.13273437 48.80742187 64.13671875 49.99609375 C64.13542969 51.10082031 64.13414062 52.20554687 64.1328125 53.34375 C64.13168457 54.35630859 64.13055664 55.36886719 64.12939453 56.41210938 C64 59 64 59 63 62 C52.44 62 41.88 62 31 62 C31 51.77 31 41.54 31 31 C20.77 31 10.54 31 0 31 C0 20.77 0 10.54 0 0 Z " fill="#837978" transform="translate(314,314)"/>
<path d="M0 0 C10.56 0 21.12 0 32 0 C32.07327544 15.97404675 32.07645807 31.91077304 31.5625 47.875 C31.52326416 49.17518066 31.48402832 50.47536133 31.44360352 51.81494141 C31.40162842 53.00780762 31.35965332 54.20067383 31.31640625 55.4296875 C31.27974854 56.48397949 31.24309082 57.53827148 31.20532227 58.62451172 C31 61 31 61 30 62 C20.1 62 10.2 62 0 62 C0 41.54 0 21.08 0 0 Z " fill="#FCE599" transform="translate(314,220)"/>
<path d="M0 0 C10.23 0 20.46 0 31 0 C31 20.79 31 41.58 31 63 C20.77 63 10.54 63 0 63 C0 42.21 0 21.42 0 0 Z " fill="#F8C953" transform="translate(283,283)"/>
<path d="M0 0 C10.23 0 20.46 0 31 0 C31 20.46 31 40.92 31 62 C20.77 62 10.54 62 0 62 C0 41.54 0 21.08 0 0 Z " fill="#FDFDFB" transform="translate(189,157)"/>
<path d="M0 0 C0 10.23 0 20.46 0 31 C-20.46 31 -40.92 31 -62 31 C-62 21.1 -62 11.2 -62 1 C-41.29037884 0.23651166 -20.72345826 -0.09549981 0 0 Z " fill="#BFBCBD" transform="translate(345,345)"/>
<path d="M0 0 C9.9 0 19.8 0 30 0 C30.02097747 7.35609869 30.04101229 14.71208887 30.05175018 22.06819153 C30.05702771 25.493879 30.06407888 28.91954168 30.07543945 32.34521484 C30.0883967 36.27701517 30.09323922 40.20880542 30.09765625 44.140625 C30.10281754 45.36678528 30.10797882 46.59294556 30.11329651 47.85626221 C30.11340981 49.56758331 30.11340981 49.56758331 30.11352539 51.31347656 C30.115746 52.31719299 30.11796661 53.32090942 30.12025452 54.3550415 C30 57 30 57 29 61 C19.43 61 9.86 61 0 61 C0 40.87 0 20.74 0 0 Z " fill="#FCE598" transform="translate(346,283)"/>
<path d="M0 0 C15.84 0.495 15.84 0.495 32 1 C32 11.23 32 21.46 32 32 C42.23 32 52.46 32 63 32 C63 73.58 63 115.16 63 158 C52.77 158 42.54 158 32 158 C32 159.65 32 161.3 32 163 C31.67 163 31.34 163 31 163 C31 161.02 31 159.04 31 157 C41.23 157 51.46 157 62 157 C62 116.08 62 75.16 62 33 C51.77 33 41.54 33 31 33 C25.17881395 32.87017666 19.37767239 32.72720722 13.5625 32.5 C9.086875 32.335 4.61125 32.17 0 32 C0 21.44 0 10.88 0 0 Z " fill="#EFDB9A" transform="translate(408,62)"/>
<path d="M0 0 C0.68429077 -0.00095673 1.36858154 -0.00191345 2.0736084 -0.00289917 C3.52286877 -0.0035808 4.97213218 -0.00172773 6.42138672 0.00244141 C8.64687928 0.00778998 10.87217001 0.0024959 13.09765625 -0.00390625 C14.50260461 -0.00324547 15.90755285 -0.0019643 17.3125 0 C18.59962891 0.00112793 19.88675781 0.00225586 21.21289062 0.00341797 C24.15625 0.1328125 24.15625 0.1328125 25.15625 1.1328125 C25.41078381 5.75206638 25.34148041 10.38238107 25.34375 15.0078125 C25.35599609 16.31363281 25.36824219 17.61945313 25.38085938 18.96484375 C25.38279297 20.21394531 25.38472656 21.46304687 25.38671875 22.75 C25.39082764 23.90097168 25.39493652 25.05194336 25.39916992 26.23779297 C25.15625 29.1328125 25.15625 29.1328125 23.15625 32.1328125 C20.40649414 32.52099609 20.40649414 32.52099609 16.94140625 32.53125 C15.07645508 32.53705078 15.07645508 32.53705078 13.17382812 32.54296875 C11.21606445 32.52556641 11.21606445 32.52556641 9.21875 32.5078125 C7.26678711 32.52521484 7.26678711 32.52521484 5.27539062 32.54296875 C4.03080078 32.53910156 2.78621094 32.53523438 1.50390625 32.53125 C-0.21300415 32.52617432 -0.21300415 32.52617432 -1.96459961 32.52099609 C-4.84375 32.1328125 -4.84375 32.1328125 -6.7199707 31.00683594 C-8.38492724 28.23034096 -8.19800518 25.96806659 -8.171875 22.75 C-8.16671875 21.50089844 -8.1615625 20.25179688 -8.15625 18.96484375 C-8.1253125 17.00611328 -8.1253125 17.00611328 -8.09375 15.0078125 C-8.08859375 13.69425781 -8.0834375 12.38070313 -8.078125 11.02734375 C-7.98695359 0.00699908 -7.98695359 0.00699908 0 0 Z " fill="#545454" transform="translate(320.84375,438.8671875)"/>
<path d="M0 0 C10.23 0 20.46 0 31 0 C31 10.56 31 21.12 31 32 C25.3075 32.0309375 25.3075 32.0309375 19.5 32.0625 C18.31986328 32.071604 17.13972656 32.08070801 15.92382812 32.09008789 C10.18170364 32.10511202 4.67683834 31.8749496 -1 31 C-1.02902168 26.58334712 -1.04680608 22.16671877 -1.0625 17.75 C-1.07087891 16.49574219 -1.07925781 15.24148438 -1.08789062 13.94921875 C-1.09111328 12.74394531 -1.09433594 11.53867187 -1.09765625 10.296875 C-1.10289307 9.18666992 -1.10812988 8.07646484 -1.11352539 6.93261719 C-1 4 -1 4 0 0 Z " fill="#BDBBBC" transform="translate(283,408)"/>
<path d="M0 0 C10.23 0 20.46 0 31 0 C31 10.23 31 20.46 31 31 C20.77 31 10.54 31 0 31 C0 20.77 0 10.54 0 0 Z " fill="#545350" transform="translate(314,314)"/>
<path d="M0 0 C10.23 0 20.46 0 31 0 C31 10.23 31 20.46 31 31 C20.77 31 10.54 31 0 31 C0 20.77 0 10.54 0 0 Z " fill="#FCE599" transform="translate(283,283)"/>
<path d="M0 0 C10.23 0 20.46 0 31 0 C31.020625 4.929375 31.04125 9.85875 31.0625 14.9375 C31.071604 16.49460693 31.08070801 18.05171387 31.09008789 19.65600586 C31.09258545 20.87167236 31.09508301 22.08733887 31.09765625 23.33984375 C31.10551147 25.21724243 31.10551147 25.21724243 31.11352539 27.13256836 C31 30 31 30 30 31 C27.78144736 31.08783542 25.56011504 31.10694609 23.33984375 31.09765625 C22.12417725 31.09515869 20.90851074 31.09266113 19.65600586 31.09008789 C18.09889893 31.08098389 16.54179199 31.07187988 14.9375 31.0625 C10.008125 31.041875 5.07875 31.02125 0 31 C0 20.77 0 10.54 0 0 Z " fill="#F8C953" transform="translate(314,251)"/>
<path d="M0 0 C10.23 0 20.46 0 31 0 C31 9.9 31 19.8 31 30 C20.77 30 10.54 30 0 30 C-0.185625 27.2775 -0.37125 24.555 -0.5625 21.75 C-0.62381104 20.91952148 -0.68512207 20.08904297 -0.74829102 19.23339844 C-1.1583036 12.56590409 -0.57217646 6.86611749 0 0 Z " fill="#FDFDFB" transform="translate(220,220)"/>
<path d="M0 0 C9.9 0 19.8 0 30 0 C30.0309375 6.31125 30.0309375 6.31125 30.0625 12.75 C30.071604 14.0709668 30.08070801 15.39193359 30.09008789 16.75292969 C30.09258545 17.79868164 30.09508301 18.84443359 30.09765625 19.921875 C30.10551147 21.52434082 30.10551147 21.52434082 30.11352539 23.15917969 C30 26 30 26 29 30 C19.43 30 9.86 30 0 30 C0 20.1 0 10.2 0 0 Z " fill="#F7C955" transform="translate(346,314)"/>
<path d="M0 0 C9.57 0 19.14 0 29 0 C29 9.9 29 19.8 29 30 C20.09 30 11.18 30 2 30 C0.20806219 25.52015547 -0.24232803 23.62698272 -0.1953125 19.04296875 C-0.19031738 18.04031982 -0.18532227 17.0376709 -0.18017578 16.00463867 C-0.16196777 14.74498291 -0.14375977 13.48532715 -0.125 12.1875 C-0.08375 8.165625 -0.0425 4.14375 0 0 Z " fill="#BFBDBD" transform="translate(284,251)"/>
<path d="M0 0 C10.56 0 21.12 0 32 0 C32 51.48 32 102.96 32 156 C21.44 156 10.88 156 0 156 C0 135.54 0 115.08 0 94 C-20.79 94 -41.58 94 -63 94 C-63 71.89 -63 49.78 -63 27 C-62.67 27 -62.34 27 -62 27 C-62 48.78 -62 70.56 -62 93 C-41.21 93 -20.42 93 1 93 C1 113.13 1 133.26 1 154 C10.24 153.67 19.48 153.34 29 153 C29.33 102.84 29.66 52.68 30 1 C21.09 1 12.18 1 3 1 C2.67 20.14 2.34 39.28 2 59 C2.66 59.33 3.32 59.66 4 60 C2.02 60.99 2.02 60.99 0 62 C0 41.54 0 21.08 0 0 Z " fill="#C6A75A" transform="translate(188,1)"/>
<path d="M0 0 C0.33 0 0.66 0 1 0 C1 10.23 1 20.46 1 31 C10.9 31 20.8 31 31 31 C32.42267862 28.15464275 32.21971869 25.63781448 32.31640625 22.4609375 C32.37924805 20.50800781 32.37924805 20.50800781 32.44335938 18.515625 C32.48317299 17.13541955 32.52288522 15.75521117 32.5625 14.375 C32.60569407 12.98696585 32.64930865 11.59894472 32.69335938 10.2109375 C32.79972 6.80739744 32.90174714 3.40378222 33 0 C33.33 0 33.66 0 34 0 C34.02505615 0.73114014 34.0501123 1.46228027 34.07592773 2.21557617 C34.19222641 5.53971417 34.31479928 8.86359241 34.4375 12.1875 C34.47681641 13.33798828 34.51613281 14.48847656 34.55664062 15.67382812 C34.59853516 16.78564453 34.64042969 17.89746094 34.68359375 19.04296875 C34.73858032 20.57473755 34.73858032 20.57473755 34.79467773 22.13745117 C34.96699438 25.37863031 34.96699438 25.37863031 36 30 C44.91 30 53.82 30 63 30 C63 20.1 63 10.2 63 0 C63.33 0 63.66 0 64 0 C64 10.23 64 20.46 64 31 C73.9 30.67 83.8 30.34 94 30 C94.33 20.1 94.66 10.2 95 0 C95.33 0 95.66 0 96 0 C96 10.23 96 20.46 96 31 C105.9 31 115.8 31 126 31 C126 20.77 126 10.54 126 0 C126.33 0 126.66 0 127 0 C127 10.23 127 20.46 127 31 C137.23 31 147.46 31 158 31 C158 31.33 158 31.66 158 32 C147.77 32 137.54 32 127 32 C127 52.46 127 72.92 127 94 C116.77 94 106.54 94 96 94 C96 93.67 96 93.34 96 93 C105.57 93 115.14 93 125 93 C125.33 72.87 125.66 52.74 126 32 C116.1 32 106.2 32 96 32 C96 42.23 96 52.46 96 63 C95.67 63 95.34 63 95 63 C95 53.43 95 43.86 95 34 C80.15 33.505 80.15 33.505 65 33 C65 42.57 65 52.14 65 62 C64.67 62 64.34 62 64 62 C64 52.1 64 42.2 64 32 C59.38 32.185625 54.76 32.37125 50 32.5625 C33.27118303 33.15696047 16.73195596 32.67226609 0 32 C0 21.44 0 10.88 0 0 Z " fill="#D6C597" transform="translate(250,251)"/>
<path d="M0 0 C10.23 0 20.46 0 31 0 C30.67 0.99 30.34 1.98 30 3 C29.34 2.67 28.68 2.34 28 2 C26.0406396 1.91489795 24.07837206 1.89282344 22.1171875 1.90234375 C20.36728516 1.90717773 20.36728516 1.90717773 18.58203125 1.91210938 C17.35871094 1.92048828 16.13539063 1.92886719 14.875 1.9375 C13.64394531 1.94201172 12.41289062 1.94652344 11.14453125 1.95117188 C8.09630608 1.9629867 5.04817686 1.97945972 2 2 C2.00888245 2.73027405 2.01776489 3.4605481 2.0269165 4.21295166 C2.10710091 11.09877061 2.16798393 17.98451968 2.20724869 24.87068558 C2.22811412 28.41090072 2.25641126 31.95072974 2.30175781 35.49072266 C2.35357738 39.56156091 2.37295369 43.63199427 2.390625 47.703125 C2.41127014 48.97303284 2.43191528 50.24294067 2.45318604 51.55133057 C2.45348816 52.73225281 2.45379028 53.91317505 2.45410156 55.12988281 C2.46298401 56.16912903 2.47186646 57.20837524 2.48101807 58.27911377 C1.8727224 61.71994774 0.74310652 62.89788153 -2 65 C-5.02441406 65.36230469 -5.02441406 65.36230469 -8.515625 65.171875 C-9.64258789 65.1212793 -10.76955078 65.07068359 -11.93066406 65.01855469 C-14.06873535 64.88562012 -14.06873535 64.88562012 -16.25 64.75 C-20.7875 64.5025 -25.325 64.255 -30 64 C-30 73.57 -30 83.14 -30 93 C-20.1 93 -10.2 93 0 93 C0 89.37 0 85.74 0 82 C0.33 82 0.66 82 1 82 C1 85.96 1 89.92 1 94 C-9.56 94 -20.12 94 -31 94 C-31 83.44 -31 72.88 -31 62 C-16.15 61.505 -16.15 61.505 -1 61 C-0.67 40.87 -0.34 20.74 0 0 Z " fill="#F7F3DE" transform="translate(439,157)"/>
<path d="M0 0 C0.33 0 0.66 0 1 0 C1 20.46 1 40.92 1 62 C11.23 62 21.46 62 32 62 C32 41.54 32 21.08 32 0 C52.79 0 73.58 0 95 0 C95 0.33 95 0.66 95 1 C74.87 1.33 54.74 1.66 34 2 C33.67 21.47 33.34 40.94 33 61 C41.58 60.67 50.16 60.34 59 60 C60.32 60.66 61.64 61.32 63 62 C63 62.33 63 62.66 63 63 C52.77 63 42.54 63 32 63 C32 66.96 32 70.92 32 75 C31.67 75 31.34 75 31 75 C31 71.04 31 67.08 31 63 C20.77 63 10.54 63 0 63 C0 42.21 0 21.42 0 0 Z " fill="#E5DCB9" transform="translate(188,157)"/>
<path d="M0 0 C0.33 0 0.66 0 1 0 C1 10.23 1 20.46 1 31 C-9.23 31 -19.46 31 -30 31 C-30 51.79 -30 72.58 -30 94 C-40.56 94 -51.12 94 -62 94 C-62 93.34 -62 92.68 -62 92 C-52.1 92 -42.2 92 -32 92 C-32.01160156 87.60816406 -32.02320313 83.21632813 -32.03515625 78.69140625 C-32.04158313 75.1987333 -32.04700738 71.70606202 -32.05175018 68.21338654 C-32.05704002 64.52139609 -32.06411374 60.82942845 -32.07543945 57.13745117 C-32.08627162 53.58429169 -32.09227753 50.03115437 -32.09487724 46.47797966 C-32.0967309 45.11954334 -32.10035038 43.76110829 -32.10573006 42.40268135 C-32.11294475 40.50617777 -32.11340809 38.60965207 -32.11352539 36.71313477 C-32.115746 35.63169693 -32.11796661 34.55025909 -32.12025452 33.43605042 C-32 31 -32 31 -31 30 C-28.70848583 29.91209025 -26.41427476 29.89305962 -24.12109375 29.90234375 C-23.09110008 29.90446617 -23.09110008 29.90446617 -22.04029846 29.90663147 C-19.83932199 29.91224521 -17.63844591 29.92479993 -15.4375 29.9375 C-13.94856917 29.94251324 -12.45963676 29.94707645 -10.97070312 29.95117188 C-7.31373195 29.96136979 -3.65697883 29.98094221 0 30 C0 20.1 0 10.2 0 0 Z " fill="#FEFBE8" transform="translate(313,63)"/>
<path d="M0 0 C9.9 0 19.8 0 30 0 C30 10.56 30 21.12 30 32 C19.77 32 9.54 32 -1 32 C-1.020625 28.57625 -1.04125 25.1525 -1.0625 21.625 C-1.071604 20.56748535 -1.08070801 19.5099707 -1.09008789 18.42041016 C-1.09258545 17.55206543 -1.09508301 16.6837207 -1.09765625 15.7890625 C-1.10289307 14.91975098 -1.10812988 14.05043945 -1.11352539 13.15478516 C-0.95527125 8.75702168 -0.43787706 4.37877056 0 0 Z M1 2 C1 10.91 1 19.82 1 29 C10.24 29 19.48 29 29 29 C29.020625 24.565625 29.04125 20.13125 29.0625 15.5625 C29.071604 14.16201416 29.08070801 12.76152832 29.09008789 11.31860352 C29.09258545 10.22475342 29.09508301 9.13090332 29.09765625 8.00390625 C29.10289307 6.87799072 29.10812988 5.7520752 29.11352539 4.59204102 C29.29545448 2.07029129 29.29545448 2.07029129 28 1 C26.25487869 0.90048265 24.5057679 0.86919697 22.7578125 0.8671875 C21.15873047 0.86525391 21.15873047 0.86525391 19.52734375 0.86328125 C18.40457031 0.86714844 17.28179687 0.87101562 16.125 0.875 C15.00996094 0.87113281 13.89492188 0.86726563 12.74609375 0.86328125 C11.67746094 0.86457031 10.60882813 0.86585938 9.5078125 0.8671875 C8.52441895 0.86831543 7.54102539 0.86944336 6.52783203 0.87060547 C3.87385148 0.89354027 3.87385148 0.89354027 1 2 Z " fill="#EBC770" transform="translate(284,314)"/>
<path d="M0 0 C0.33 0 0.66 0 1 0 C1 40.92 1 81.84 1 124 C10.24 123.67 19.48 123.34 29 123 C29 122.34 29 121.68 29 121 C29.99 121 30.98 121 32 121 C32 119.35 32 117.7 32 116 C32.33 116 32.66 116 33 116 C32.67 129.2 32.34 142.4 32 156 C31.67 156 31.34 156 31 156 C31 145.77 31 135.54 31 125 C20.77 125 10.54 125 0 125 C0 83.75 0 42.5 0 0 Z " fill="#887039" transform="translate(63,1)"/>
<path d="M0 0 C0.33 0 0.66 0 1 0 C1 10.23 1 20.46 1 31 C10.9 31 20.8 31 31 31 C32.42267862 28.15464275 32.21971869 25.63781448 32.31640625 22.4609375 C32.37924805 20.50800781 32.37924805 20.50800781 32.44335938 18.515625 C32.48317299 17.13541955 32.52288522 15.75521117 32.5625 14.375 C32.60569407 12.98696585 32.64930865 11.59894472 32.69335938 10.2109375 C32.79972 6.80739744 32.90174714 3.40378222 33 0 C33.33 0 33.66 0 34 0 C34.02505615 0.73114014 34.0501123 1.46228027 34.07592773 2.21557617 C34.19222641 5.53971417 34.31479928 8.86359241 34.4375 12.1875 C34.47681641 13.33798828 34.51613281 14.48847656 34.55664062 15.67382812 C34.59853516 16.78564453 34.64042969 17.89746094 34.68359375 19.04296875 C34.73858032 20.57473755 34.73858032 20.57473755 34.79467773 22.13745117 C34.96699438 25.37863031 34.96699438 25.37863031 36 30 C44.91 30 53.82 30 63 30 C63 20.1 63 10.2 63 0 C63.33 0 63.66 0 64 0 C64 10.56 64 21.12 64 32 C42.49451662 32.8640596 21.50548338 32.8640596 0 32 C0 21.44 0 10.88 0 0 Z " fill="#BDB399" transform="translate(250,251)"/>
<path d="M0 0 C10.23 0 20.46 0 31 0 C31 20.79 31 41.58 31 63 C10.54 63 -9.92 63 -31 63 C-31 60.69 -31 58.38 -31 56 C-29 59 -29 59 -28 61 C-8.86 61 10.28 61 30 61 C30 41.2 30 21.4 30 1 C20.1 1 10.2 1 0 1 C0 0.67 0 0.34 0 0 Z " fill="#F2CD66" transform="translate(408,94)"/>
<path d="M0 0 C10.23 0 20.46 0 31 0 C31.020625 4.929375 31.04125 9.85875 31.0625 14.9375 C31.071604 16.49460693 31.08070801 18.05171387 31.09008789 19.65600586 C31.09258545 20.87167236 31.09508301 22.08733887 31.09765625 23.33984375 C31.10551147 25.21724243 31.10551147 25.21724243 31.11352539 27.13256836 C31 30 31 30 30 31 C27.78144736 31.08783542 25.56011504 31.10694609 23.33984375 31.09765625 C22.12417725 31.09515869 20.90851074 31.09266113 19.65600586 31.09008789 C18.09889893 31.08098389 16.54179199 31.07187988 14.9375 31.0625 C10.008125 31.041875 5.07875 31.02125 0 31 C0 20.77 0 10.54 0 0 Z M2 2 C0.9407082 5.17787541 0.88541061 7.42588943 0.90234375 10.76171875 C0.90484131 11.76936279 0.90733887 12.77700684 0.90991211 13.81518555 C0.91901611 15.09304932 0.92812012 16.37091309 0.9375 17.6875 C0.958125 21.750625 0.97875 25.81375 1 30 C10.57 30 20.14 30 30 30 C29.67 20.43 29.34 10.86 29 1 C25.2875 0.979375 21.575 0.95875 17.75 0.9375 C16.00348145 0.92384399 16.00348145 0.92384399 14.22167969 0.90991211 C13.29774414 0.90741455 12.37380859 0.90491699 11.421875 0.90234375 C10.47924805 0.89710693 9.53662109 0.89187012 8.56542969 0.88647461 C6.17010241 0.99247263 4.23071855 1.11813945 2 2 Z " fill="#EEC969" transform="translate(314,251)"/>
<path d="M0 0 C0.33 0.66 0.66 1.32 1 2 C1.66 2.33 2.32 2.66 3 3 C2.67 21.48 2.34 39.96 2 59 C2.66 59.33 3.32 59.66 4 60 C2.68 60.66 1.36 61.32 0 62 C0 41.54 0 21.08 0 0 Z " fill="#D2A851" transform="translate(188,1)"/>
<path d="M0 0 C9.24 0 18.48 0 28 0 C27.67 0.99 27.34 1.98 27 3 C19.08 3.33 11.16 3.66 3 4 C2.34 10.27 1.68 16.54 1 23 C0.67 23 0.34 23 0 23 C0 15.41 0 7.82 0 0 Z " fill="#C0A04C" transform="translate(125,0)"/>
<path d="M0 0 C10.23 0 20.46 0 31 0 C31 0.33 31 0.66 31 1 C29.78884521 1.03758423 29.78884521 1.03758423 28.55322266 1.07592773 C24.91031083 1.19165487 21.26767274 1.31448635 17.625 1.4375 C15.71847656 1.49647461 15.71847656 1.49647461 13.7734375 1.55664062 C12.56171875 1.59853516 11.35 1.64042969 10.1015625 1.68359375 C8.42054443 1.73858032 8.42054443 1.73858032 6.70556641 1.79467773 C4.03287229 1.82596013 4.03287229 1.82596013 2 3 C1.67 22.8 1.34 42.6 1 63 C0.67 63 0.34 63 0 63 C0 42.21 0 21.42 0 0 Z " fill="#F8E8B8" transform="translate(283,94)"/>
<path d="M0 0 C10.23 0 20.46 0 31 0 C31 0.33 31 0.66 31 1 C21.43 1.33 11.86 1.66 2 2 C2 11.57 2 21.14 2 31 C1.34 31.33 0.68 31.66 0 32 C0 21.44 0 10.88 0 0 Z " fill="#AE914A" transform="translate(0,125)"/>
<path d="M0 0 C0.66 0.33 1.32 0.66 2 1 C4.32273159 1.15520557 6.64959313 1.25019167 8.9765625 1.31640625 C9.66181 1.33718735 10.3470575 1.35796844 11.05307007 1.37937927 C13.24361069 1.44480185 15.43427189 1.50372554 17.625 1.5625 C19.1093875 1.60569218 20.59376278 1.6493067 22.078125 1.69335938 C25.71862084 1.80047553 29.35925251 1.90176362 33 2 C33 2.33 33 2.66 33 3 C28.49807684 3.19244514 23.99589691 3.37113658 19.49291992 3.53710938 C17.96119563 3.59550403 16.42960967 3.65765305 14.89819336 3.72363281 C12.69670803 3.81782927 10.49507811 3.89850637 8.29296875 3.9765625 C7.60849167 4.00875885 6.92401459 4.0409552 6.21879578 4.0741272 C2.52700357 4.19040732 1.17289262 4.11526175 -2 2 C-1.34 2 -0.68 2 0 2 C0 1.34 0 0.68 0 0 Z " fill="#DACCA6" transform="translate(281,280)"/>
<path d="M0 0 C0.33 0 0.66 0 1 0 C0.67 2.97 0.34 5.94 0 9 C-4.95 9 -9.9 9 -15 9 C-15 8.67 -15 8.34 -15 8 C-9.06 7.505 -9.06 7.505 -3 7 C-3 6.34 -3 5.68 -3 5 C-2.01 5 -1.02 5 0 5 C0 3.35 0 1.7 0 0 Z " fill="#766D59" transform="translate(95,117)"/>
</svg>
