<svg width="1024" height="155" viewBox="0 0 1024 155" fill="none" xmlns="http://www.w3.org/2000/svg">
<path d="M63.1908 21.1994H52.6861C51.3289 21.1994 49.9175 21.3624 48.4517 21.6886C47.0402 21.9604 45.7373 22.4224 44.543 23.0747C43.3487 23.727 42.3715 24.5695 41.6115 25.6023C40.8514 26.6351 40.4714 27.8853 40.4714 29.353V58.1352C40.4714 62.3207 39.8742 66.017 38.6799 69.2241C37.4856 72.3768 35.9384 75.1219 34.0383 77.4592C36.3184 80.3945 37.9199 83.5473 38.8428 86.9174C39.82 90.2876 40.3085 93.4403 40.3085 96.3756V125.239C40.3085 127.142 40.7971 128.664 41.7743 129.805C42.7515 130.893 43.9187 131.735 45.2759 132.333C46.6331 132.877 47.9902 133.23 49.3474 133.393C50.7046 133.502 51.7632 133.556 52.5233 133.556H63.0279V155H52.3604C50.1346 155 47.7459 154.755 45.1944 154.266C42.6972 153.831 40.2 153.098 37.7027 152.065C35.2598 151.086 32.8983 149.809 30.6182 148.233C28.3924 146.656 26.4109 144.754 24.6737 142.525C22.9908 140.296 21.6336 137.742 20.6021 134.861C19.625 131.98 19.1364 128.718 19.1364 125.076V96.5387C19.1364 93.6577 18.3764 91.5106 16.8563 90.0973C15.3905 88.684 13.3276 87.9774 10.6675 87.9774C9.14746 87.9774 7.73598 87.7056 6.43308 87.162C5.13018 86.5641 3.99014 85.8031 3.01296 84.879C2.09007 83.9006 1.35719 82.7591 0.814314 81.4545C0.271438 80.1499 0 78.7638 0 77.2962C0 75.8285 0.271438 74.4696 0.814314 73.2194C1.35719 71.9148 2.09007 70.8005 3.01296 69.8764C3.99014 68.8979 5.10304 68.1369 6.35165 67.5934C7.65455 66.9954 9.03889 66.6693 10.5047 66.6149C13.4362 66.6149 15.6348 65.9083 17.1006 64.495C18.5664 63.0274 19.2992 60.9074 19.2992 58.1352V29.353C19.2992 24.6782 20.2493 20.5199 22.1493 16.878C24.0494 13.236 26.5738 10.1648 29.7225 7.66439C32.8711 5.16395 36.427 3.26144 40.39 1.95686C44.4073 0.652288 48.506 0 52.6861 0H63.1908V21.1994Z" fill="#7E7E7E"/>
<path d="M235.5 25.1946C236.314 27.0971 236.558 29.1084 236.233 31.2283C235.907 33.2939 235.038 35.0605 233.627 36.5281L163.759 114.558H235.337V135.757H139.899C137.836 135.757 135.909 135.187 134.118 134.045C132.38 132.849 131.077 131.3 130.209 129.398C129.286 127.495 128.987 125.511 129.313 123.446C129.693 121.38 130.562 119.586 131.919 118.064L201.95 40.0342H130.209V18.8348H225.809C227.872 18.8348 229.772 19.4328 231.51 20.6286C233.301 21.7701 234.631 23.2921 235.5 25.1946Z" fill="url(#paint0_linear_2_11)"/>
<path d="M365.871 57.9721C365.871 62.8099 365.247 67.1313 363.998 70.9363C362.804 74.7414 361.203 78.1115 359.194 81.0468C357.185 83.9278 354.824 86.401 352.109 88.4666C349.449 90.5322 346.681 92.2444 343.803 93.6034C340.926 94.9079 337.995 95.8592 335.009 96.4571C332.077 97.0551 329.309 97.354 326.703 97.354H318.153V135.757H296.818V97.354H288.349C285.743 97.354 282.947 97.0551 279.961 96.4571C277.03 95.8592 274.098 94.9079 271.167 93.6034C268.289 92.2444 265.521 90.5322 262.861 88.4666C260.201 86.401 257.839 83.9278 255.776 81.0468C253.767 78.1115 252.139 74.7414 250.89 70.9363C249.696 67.077 249.099 62.7556 249.099 57.9721V18.8348H270.271V57.9721C270.271 60.7443 270.705 63.2448 271.574 65.4734C272.442 67.6477 273.664 69.5231 275.238 71.0994C276.812 72.6758 278.713 73.8988 280.938 74.7685C283.218 75.5839 285.743 75.9916 288.511 75.9916H326.703C328.711 75.6654 330.774 75.2578 332.892 74.7685C335.009 74.225 336.936 73.3281 338.673 72.0779C340.41 70.8276 341.849 69.0882 342.989 66.8596C344.129 64.6309 344.699 61.6684 344.699 57.9721V18.8348H365.871V57.9721Z" fill="url(#paint1_linear_2_11)"/>
<path d="M501.617 126.707C501.617 128.229 501.319 129.642 500.722 130.947C500.179 132.251 499.419 133.393 498.442 134.371C497.519 135.295 496.406 136.029 495.103 136.573C493.8 137.116 492.416 137.388 490.95 137.388C489.647 137.388 488.317 137.144 486.96 136.654C485.657 136.165 484.49 135.377 483.458 134.29L406.098 53.4061V135.757H384.926V27.8853C384.926 25.711 385.523 23.7542 386.718 22.0147C387.966 20.2209 389.541 18.8892 391.441 18.0195C393.449 17.2041 395.512 17.0139 397.63 17.4487C399.747 17.8292 401.565 18.8076 403.085 20.384L480.445 101.186V18.8348H501.617V126.707Z" fill="url(#paint2_linear_2_11)"/>
<path d="M631.826 40.0342H585.166V135.757H563.994V40.0342H517.252V18.8348H631.826V40.0342Z" fill="url(#paint3_linear_2_11)"/>
<path d="M757.964 135.757H736.791V107.057H662.363V135.757H641.191V77.2962C641.191 68.7621 642.657 60.9074 645.588 53.7322C648.52 46.5571 652.591 40.3875 657.803 35.2236C663.015 30.0596 669.176 26.0372 676.288 23.1562C683.4 20.2753 691.163 18.8348 699.577 18.8348H747.296C748.762 18.8348 750.146 19.1066 751.449 19.6502C752.752 20.1938 753.892 20.9548 754.869 21.9332C755.846 22.9116 756.606 24.0531 757.149 25.3577C757.692 26.6623 757.964 28.0484 757.964 29.516V135.757ZM662.363 85.8574H736.791V40.0342H699.577C698.926 40.0342 697.541 40.1429 695.424 40.3603C693.361 40.5234 690.946 40.9854 688.177 41.7464C685.462 42.5075 682.585 43.6761 679.545 45.2525C676.505 46.8289 673.709 49.0032 671.158 51.7754C668.606 54.5476 666.489 58.0265 664.806 62.212C663.177 66.3432 662.363 71.3712 662.363 77.2962V85.8574Z" fill="url(#paint4_linear_2_11)"/>
<path d="M835.975 60.5813L871.642 18.8348H900.55L850.307 77.4592L900.224 135.757H871.479L835.975 94.3372L800.634 135.757H771.807L821.643 77.4592L771.644 18.8348H800.308L835.975 60.5813Z" fill="url(#paint5_linear_2_11)"/>
<path d="M1024 77.2962C1024 78.7638 1023.73 80.1499 1023.19 81.4545C1022.64 82.7591 1021.88 83.9006 1020.91 84.879C1019.98 85.8031 1018.87 86.5641 1017.57 87.162C1016.32 87.7056 1014.96 87.9774 1013.5 87.9774C1010.73 87.9774 1008.58 88.684 1007.06 90.0973C1005.6 91.5106 1004.86 93.6577 1004.86 96.5387L1005.03 125.076C1005.03 128.718 1004.51 131.98 1003.48 134.861C1002.45 137.742 1001.06 140.296 999.326 142.525C997.589 144.754 995.58 146.656 993.3 148.233C991.075 149.809 988.713 151.086 986.216 152.065C983.773 153.098 981.276 153.831 978.724 154.266C976.227 154.755 973.865 155 971.64 155H961.135L960.972 133.556H971.64C972.345 133.556 973.377 133.502 974.734 133.393C976.091 133.23 977.421 132.877 978.724 132.333C980.081 131.735 981.248 130.893 982.226 129.805C983.203 128.664 983.691 127.142 983.691 125.239V96.3756C983.691 93.4403 984.18 90.2876 985.157 86.9174C986.189 83.5473 987.79 80.3945 989.962 77.4592C988.062 75.1219 986.487 72.3768 985.239 69.2241C984.044 66.017 983.447 62.3207 983.447 58.1352V29.353C983.176 27.831 982.66 26.5536 981.9 25.5208C981.194 24.488 980.298 23.6455 979.213 22.9932C978.127 22.3409 976.905 21.8788 975.548 21.607C974.245 21.3353 972.888 21.1994 971.477 21.1994H960.809V0H971.477C975.874 0 980.081 0.706646 984.099 2.11994C988.116 3.47887 991.645 5.46291 994.685 8.07207C997.779 10.6269 1000.22 13.7252 1002.01 17.3672C1003.8 20.9548 1004.7 24.95 1004.7 29.353C1004.7 29.7335 1004.73 32.3154 1004.78 37.0989C1004.84 41.828 1004.86 48.8401 1004.86 58.1352C1004.86 60.9074 1005.57 63.0274 1006.98 64.495C1008.39 65.9083 1010.56 66.6149 1013.5 66.6149C1014.96 66.6693 1016.32 66.9954 1017.57 67.5934C1018.87 68.1369 1019.98 68.8979 1020.91 69.8764C1021.88 70.8005 1022.64 71.9148 1023.19 73.2194C1023.73 74.4696 1024 75.8285 1024 77.2962Z" fill="#7E7E7E"/>
<defs>
<linearGradient id="paint0_linear_2_11" x1="0" y1="77.5" x2="1024" y2="77.5" gradientUnits="userSpaceOnUse">
<stop offset="0.149038" stop-color="#3AA3FF"/>
<stop offset="0.658654" stop-color="#8B1DD5"/>
</linearGradient>
<linearGradient id="paint1_linear_2_11" x1="0" y1="77.5" x2="1024" y2="77.5" gradientUnits="userSpaceOnUse">
<stop offset="0.149038" stop-color="#3AA3FF"/>
<stop offset="0.658654" stop-color="#8B1DD5"/>
</linearGradient>
<linearGradient id="paint2_linear_2_11" x1="0" y1="77.5" x2="1024" y2="77.5" gradientUnits="userSpaceOnUse">
<stop offset="0.149038" stop-color="#3AA3FF"/>
<stop offset="0.658654" stop-color="#8B1DD5"/>
</linearGradient>
<linearGradient id="paint3_linear_2_11" x1="0" y1="77.5" x2="1024" y2="77.5" gradientUnits="userSpaceOnUse">
<stop offset="0.149038" stop-color="#3AA3FF"/>
<stop offset="0.658654" stop-color="#8B1DD5"/>
</linearGradient>
<linearGradient id="paint4_linear_2_11" x1="0" y1="77.5" x2="1024" y2="77.5" gradientUnits="userSpaceOnUse">
<stop offset="0.149038" stop-color="#3AA3FF"/>
<stop offset="0.658654" stop-color="#8B1DD5"/>
</linearGradient>
<linearGradient id="paint5_linear_2_11" x1="0" y1="77.5" x2="1024" y2="77.5" gradientUnits="userSpaceOnUse">
<stop offset="0.149038" stop-color="#3AA3FF"/>
<stop offset="0.658654" stop-color="#8B1DD5"/>
</linearGradient>
</defs>
</svg>
