<?xml version="1.0" encoding="UTF-8"?>
<svg xmlns="http://www.w3.org/2000/svg" xmlns:xlink="http://www.w3.org/1999/xlink" width="499px" height="500px" viewBox="0 0 374 374" version="1.1">
<g id="surface1">
<path style=" stroke:none;fill-rule:nonzero;fill:rgb(98.823529%,89.803922%,59.607846%);fill-opacity:1;" d="M 93.6875 0.375 C 124.851562 0.375 156.015625 0.375 188.121094 0.375 C 188.121094 8.007812 188.121094 15.648438 188.121094 23.515625 C 226.953125 23.515625 265.785156 23.515625 305.796875 23.515625 C 305.796875 31.148438 305.796875 38.789062 305.796875 46.65625 C 317.667969 47.023438 317.667969 47.023438 329.78125 47.402344 C 329.78125 55.039062 329.78125 62.679688 329.78125 70.546875 C 337.449219 70.546875 345.113281 70.546875 353.015625 70.546875 C 353.015625 101.582031 353.015625 132.621094 353.015625 164.605469 C 345.347656 164.605469 337.679688 164.605469 329.78125 164.605469 C 329.78125 172.238281 329.78125 179.878906 329.78125 187.746094 C 318.28125 188.113281 318.28125 188.113281 306.546875 188.492188 C 306.300781 196.128906 306.050781 203.765625 305.796875 211.632812 C 298.128906 211.632812 290.464844 211.632812 282.5625 211.632812 C 282.617188 214.382812 282.667969 217.132812 282.726562 219.960938 C 283.183594 244.40625 283.394531 268.835938 283.40625 293.277344 C 283.40625 295.480469 283.40625 297.679688 283.410156 299.886719 C 283.417969 303.371094 283.417969 306.859375 283.410156 310.355469 C 283.410156 311.648438 283.410156 312.945312 283.410156 314.238281 C 283.417969 316.015625 283.410156 317.796875 283.410156 319.574219 C 283.410156 320.09375 283.410156 320.613281 283.410156 321.148438 C 283.398438 323.652344 283.175781 325.632812 282.5625 328.089844 C 274.894531 328.089844 267.230469 328.089844 259.328125 328.089844 C 259.386719 335.109375 259.386719 335.109375 259.460938 342.140625 C 259.46875 343.007812 259.46875 343.882812 259.472656 344.78125 C 259.480469 345.679688 259.484375 346.578125 259.496094 347.5 C 259.328125 349.738281 259.328125 349.738281 257.828125 351.976562 C 255.769531 352.269531 255.769531 352.269531 253.167969 352.273438 C 252.238281 352.273438 251.304688 352.28125 250.347656 352.28125 C 248.878906 352.269531 248.878906 352.269531 247.382812 352.257812 C 246.40625 352.261719 245.433594 352.273438 244.425781 352.28125 C 243.023438 352.28125 243.023438 352.28125 241.597656 352.273438 C 240.738281 352.273438 239.886719 352.269531 238.996094 352.269531 C 236.839844 351.976562 236.839844 351.976562 235.433594 351.066406 C 234.324219 349.304688 234.347656 348.15625 234.398438 346.085938 C 234.410156 345.371094 234.421875 344.65625 234.433594 343.921875 C 234.457031 343.175781 234.476562 342.429688 234.496094 341.667969 C 234.695312 335.214844 234.695312 335.214844 233.84375 328.835938 C 233.375 328.839844 232.910156 328.839844 232.421875 328.847656 C 230.273438 328.863281 228.121094 328.871094 225.972656 328.882812 C 225.234375 328.886719 224.5 328.894531 223.746094 328.898438 C 223.019531 328.90625 222.296875 328.90625 221.546875 328.90625 C 220.886719 328.910156 220.226562 328.917969 219.550781 328.921875 C 216.808594 328.8125 214.078125 328.425781 211.355469 328.089844 C 211.355469 289.660156 211.355469 251.226562 211.355469 211.632812 C 203.445312 211.632812 195.53125 211.632812 187.375 211.632812 C 187.375 203.75 187.375 195.871094 187.375 187.746094 C 179.707031 187.746094 172.039062 187.746094 164.140625 187.746094 C 164.140625 180.113281 164.140625 172.472656 164.140625 164.605469 C 156.472656 164.605469 148.804688 164.605469 140.90625 164.605469 C 140.90625 133.8125 140.90625 103.019531 140.90625 71.292969 C 125.324219 71.292969 109.738281 71.292969 93.6875 71.292969 C 93.6875 47.886719 93.6875 24.484375 93.6875 0.375 Z M 93.6875 0.375 "/>
<path style=" stroke:none;fill-rule:nonzero;fill:rgb(74.901962%,74.117649%,73.725492%);fill-opacity:1;" d="M 235.34375 164.605469 C 243.257812 164.605469 251.171875 164.605469 259.328125 164.605469 C 259.328125 172.238281 259.328125 179.878906 259.328125 187.746094 C 266.996094 187.746094 274.660156 187.746094 282.5625 187.746094 C 282.5625 195.378906 282.5625 203.019531 282.5625 210.886719 C 290.230469 210.886719 297.898438 210.886719 305.796875 210.886719 C 305.796875 211.132812 305.796875 211.378906 305.796875 211.632812 C 298.128906 211.632812 290.464844 211.632812 282.5625 211.632812 C 282.644531 215.757812 282.644531 215.757812 282.726562 219.960938 C 283.183594 244.40625 283.394531 268.835938 283.40625 293.277344 C 283.40625 295.480469 283.40625 297.679688 283.410156 299.886719 C 283.417969 303.371094 283.417969 306.859375 283.410156 310.355469 C 283.410156 311.648438 283.410156 312.945312 283.410156 314.238281 C 283.417969 316.015625 283.410156 317.796875 283.410156 319.574219 C 283.410156 320.09375 283.410156 320.613281 283.410156 321.148438 C 283.398438 323.652344 283.175781 325.632812 282.5625 328.089844 C 274.894531 328.089844 267.230469 328.089844 259.328125 328.089844 C 259.386719 335.109375 259.386719 335.109375 259.460938 342.140625 C 259.46875 343.007812 259.46875 343.882812 259.472656 344.78125 C 259.480469 345.679688 259.484375 346.578125 259.496094 347.5 C 259.328125 349.738281 259.328125 349.738281 257.828125 351.976562 C 255.769531 352.269531 255.769531 352.269531 253.167969 352.273438 C 252.238281 352.273438 251.304688 352.28125 250.347656 352.28125 C 248.878906 352.269531 248.878906 352.269531 247.382812 352.257812 C 246.40625 352.261719 245.433594 352.273438 244.425781 352.28125 C 243.492188 352.28125 242.5625 352.28125 241.597656 352.273438 C 240.3125 352.269531 240.3125 352.269531 238.996094 352.269531 C 236.839844 351.976562 236.839844 351.976562 235.433594 351.066406 C 234.324219 349.304688 234.347656 348.15625 234.398438 346.085938 C 234.410156 345.371094 234.421875 344.65625 234.433594 343.921875 C 234.457031 343.175781 234.476562 342.429688 234.496094 341.667969 C 234.695312 335.214844 234.695312 335.214844 233.84375 328.835938 C 233.375 328.839844 232.910156 328.839844 232.421875 328.847656 C 230.273438 328.863281 228.121094 328.871094 225.972656 328.882812 C 225.234375 328.886719 224.5 328.894531 223.746094 328.898438 C 222.660156 328.90625 222.660156 328.90625 221.546875 328.90625 C 220.5625 328.917969 220.5625 328.917969 219.550781 328.921875 C 216.808594 328.8125 214.078125 328.425781 211.355469 328.089844 C 211.355469 289.660156 211.355469 251.226562 211.355469 211.632812 C 203.445312 211.632812 195.53125 211.632812 187.375 211.632812 C 187.375 203.75 187.375 195.871094 187.375 187.746094 C 187.621094 187.746094 187.871094 187.746094 188.121094 187.746094 C 188.121094 195.378906 188.121094 203.019531 188.121094 210.886719 C 195.542969 210.886719 202.964844 210.886719 210.609375 210.886719 C 211.679688 208.765625 211.527344 206.886719 211.597656 204.515625 C 211.625 203.640625 211.65625 202.765625 211.683594 201.859375 C 211.714844 200.746094 211.75 199.625 211.777344 198.476562 C 211.886719 194.9375 212 191.398438 212.109375 187.746094 C 219.777344 187.746094 227.445312 187.746094 235.34375 187.746094 C 235.34375 180.113281 235.34375 172.472656 235.34375 164.605469 Z M 235.34375 164.605469 "/>
<path style=" stroke:none;fill-rule:nonzero;fill:rgb(93.333334%,74.117649%,28.235295%);fill-opacity:1;" d="M 93.6875 0.375 C 124.851562 0.375 156.015625 0.375 188.121094 0.375 C 188.121094 8.007812 188.121094 15.648438 188.121094 23.515625 C 226.953125 23.515625 265.785156 23.515625 305.796875 23.515625 C 305.796875 23.761719 305.796875 24.003906 305.796875 24.261719 C 266.964844 24.261719 228.132812 24.261719 188.121094 24.261719 C 188.121094 55.054688 188.121094 85.847656 188.121094 117.574219 C 172.542969 117.574219 156.957031 117.574219 140.90625 117.574219 C 140.90625 102.300781 140.90625 87.027344 140.90625 71.292969 C 125.324219 71.292969 109.738281 71.292969 93.6875 71.292969 C 93.6875 47.886719 93.6875 24.484375 93.6875 0.375 Z M 93.6875 0.375 "/>
<path style=" stroke:none;fill-rule:nonzero;fill:rgb(92.156863%,73.725492%,28.627452%);fill-opacity:1;" d="M 23.234375 0.375 C 39.066406 0.375 54.894531 0.375 71.199219 0.375 C 71.695312 6.300781 72.058594 12.019531 72.046875 17.933594 C 72.054688 19.140625 72.054688 19.140625 72.054688 20.378906 C 72.054688 23.015625 72.054688 25.644531 72.054688 28.28125 C 72.054688 30.125 72.054688 31.960938 72.054688 33.804688 C 72.054688 37.648438 72.054688 41.484375 72.046875 45.328125 C 72.046875 50.261719 72.046875 55.191406 72.054688 60.125 C 72.054688 63.921875 72.054688 67.710938 72.054688 71.507812 C 72.054688 73.328125 72.054688 75.148438 72.054688 76.964844 C 72.054688 79.496094 72.054688 82.027344 72.046875 84.558594 C 72.046875 85.316406 72.054688 86.070312 72.054688 86.851562 C 72.054688 87.535156 72.046875 88.222656 72.046875 88.929688 C 72.046875 89.828125 72.046875 89.828125 72.046875 90.742188 C 71.953125 92.195312 71.953125 92.195312 71.199219 93.6875 C 71.878906 93.679688 72.554688 93.679688 73.257812 93.675781 C 75.757812 93.664062 78.265625 93.652344 80.765625 93.644531 C 81.851562 93.640625 82.941406 93.632812 84.019531 93.628906 C 85.582031 93.621094 87.136719 93.617188 88.695312 93.617188 C 89.632812 93.609375 90.574219 93.605469 91.535156 93.597656 C 93.6875 93.6875 93.6875 93.6875 94.433594 94.433594 C 94.433594 102.066406 94.433594 109.707031 94.433594 117.574219 C 63.269531 117.574219 32.113281 117.574219 0 117.574219 C 0 109.691406 0 101.8125 0 93.6875 C 7.667969 93.6875 15.335938 93.6875 23.234375 93.6875 C 23.234375 78.65625 23.234375 63.632812 23.234375 48.148438 C 15.566406 48.148438 7.902344 48.148438 0 48.148438 C 0 40.019531 0 31.890625 0 23.515625 C 7.667969 23.515625 15.335938 23.515625 23.234375 23.515625 C 23.234375 15.882812 23.234375 8.242188 23.234375 0.375 Z M 23.234375 0.375 "/>
<path style=" stroke:none;fill-rule:nonzero;fill:rgb(99.215686%,99.215686%,99.215686%);fill-opacity:1;" d="M 188.121094 24.261719 C 219.285156 24.261719 250.453125 24.261719 282.5625 24.261719 C 282.5625 31.894531 282.5625 39.535156 282.5625 47.402344 C 266.976562 47.402344 251.398438 47.402344 235.34375 47.402344 C 235.34375 55.039062 235.34375 62.679688 235.34375 70.546875 C 227.671875 70.546875 220.003906 70.546875 212.109375 70.546875 C 212.109375 86.066406 212.109375 101.582031 212.109375 117.574219 C 204.191406 117.574219 196.28125 117.574219 188.121094 117.574219 C 188.121094 86.78125 188.121094 55.988281 188.121094 24.261719 Z M 188.121094 24.261719 "/>
<path style=" stroke:none;fill-rule:nonzero;fill:rgb(32.549021%,31.764707%,30.19608%);fill-opacity:1;" d="M 117.667969 0.375 C 140.921875 0.375 164.167969 0.375 188.121094 0.375 C 188.121094 8.007812 188.121094 15.648438 188.121094 23.515625 C 226.953125 23.515625 265.785156 23.515625 305.796875 23.515625 C 305.796875 23.761719 305.796875 24.003906 305.796875 24.261719 C 266.964844 24.261719 228.132812 24.261719 188.121094 24.261719 C 188.121094 55.054688 188.121094 85.847656 188.121094 117.574219 C 180.453125 117.574219 172.789062 117.574219 164.886719 117.574219 C 164.886719 79.148438 164.886719 40.714844 164.886719 1.121094 C 156.976562 1.121094 149.0625 1.121094 140.90625 1.121094 C 140.90625 16.394531 140.90625 31.667969 140.90625 47.402344 C 133.238281 47.402344 125.570312 47.402344 117.667969 47.402344 C 117.667969 31.882812 117.667969 16.367188 117.667969 0.375 Z M 117.667969 0.375 "/>
<path style=" stroke:none;fill-rule:nonzero;fill:rgb(32.941177%,32.549021%,32.941177%);fill-opacity:1;" d="M 235.34375 234.777344 C 243.257812 234.777344 251.171875 234.777344 259.328125 234.777344 C 259.328125 242.410156 259.328125 250.050781 259.328125 257.917969 C 266.996094 257.917969 274.660156 257.917969 282.5625 257.917969 C 283.503906 260.742188 283.417969 263.382812 283.410156 266.328125 C 283.410156 267.265625 283.410156 267.265625 283.410156 268.234375 C 283.417969 270.316406 283.410156 272.398438 283.410156 274.480469 C 283.410156 275.921875 283.410156 277.367188 283.410156 278.8125 C 283.417969 281.847656 283.410156 284.878906 283.410156 287.914062 C 283.40625 291.796875 283.40625 295.6875 283.410156 299.570312 C 283.417969 302.554688 283.410156 305.542969 283.410156 308.527344 C 283.410156 309.964844 283.410156 311.398438 283.410156 312.828125 C 283.417969 314.832031 283.410156 316.832031 283.410156 318.839844 C 283.410156 319.429688 283.410156 320.023438 283.410156 320.636719 C 283.40625 323.300781 283.21875 325.480469 282.5625 328.089844 C 274.894531 328.089844 267.230469 328.089844 259.328125 328.089844 C 259.386719 335.109375 259.386719 335.109375 259.460938 342.140625 C 259.46875 343.007812 259.46875 343.882812 259.472656 344.78125 C 259.480469 345.679688 259.484375 346.578125 259.496094 347.5 C 259.328125 349.738281 259.328125 349.738281 257.828125 351.976562 C 255.769531 352.269531 255.769531 352.269531 253.167969 352.273438 C 252.238281 352.273438 251.304688 352.28125 250.347656 352.28125 C 248.878906 352.269531 248.878906 352.269531 247.382812 352.257812 C 246.40625 352.261719 245.433594 352.273438 244.425781 352.28125 C 243.492188 352.28125 242.5625 352.28125 241.597656 352.273438 C 240.3125 352.269531 240.3125 352.269531 238.996094 352.269531 C 236.839844 351.976562 236.839844 351.976562 235.597656 351.085938 C 234.234375 349.253906 234.328125 348.085938 234.359375 345.820312 C 234.363281 345.015625 234.371094 344.203125 234.375 343.371094 C 234.40625 342.050781 234.40625 342.050781 234.429688 340.699219 C 234.441406 339.777344 234.445312 338.847656 234.457031 337.898438 C 234.484375 335.390625 234.519531 332.890625 234.566406 330.382812 C 234.609375 327.828125 234.636719 325.265625 234.671875 322.710938 C 234.75 317.007812 234.84375 311.304688 234.941406 305.601562 C 234.988281 302.902344 235.03125 300.199219 235.078125 297.507812 C 235.164062 292.269531 235.25 287.039062 235.34375 281.804688 C 243.011719 281.804688 250.679688 281.804688 258.574219 281.804688 C 258.574219 273.921875 258.574219 266.042969 258.574219 257.917969 C 250.90625 257.917969 243.242188 257.917969 235.34375 257.917969 C 235.34375 250.285156 235.34375 242.644531 235.34375 234.777344 Z M 235.34375 234.777344 "/>
<path style=" stroke:none;fill-rule:nonzero;fill:rgb(96.862745%,78.823531%,32.941177%);fill-opacity:1;" d="M 258.574219 48.148438 C 264.617188 48.132812 270.660156 48.121094 276.695312 48.109375 C 279.511719 48.109375 282.324219 48.105469 285.132812 48.09375 C 287.84375 48.085938 290.550781 48.082031 293.257812 48.082031 C 294.292969 48.082031 295.324219 48.074219 296.359375 48.070312 C 297.804688 48.070312 299.253906 48.0625 300.695312 48.0625 C 301.519531 48.0625 302.34375 48.0625 303.191406 48.0625 C 305.042969 48.148438 305.042969 48.148438 305.796875 48.898438 C 305.863281 50.5 305.875 52.105469 305.867188 53.703125 C 305.867188 54.582031 305.867188 55.457031 305.863281 56.363281 C 305.855469 57.488281 305.851562 58.613281 305.84375 59.769531 C 305.828125 63.324219 305.808594 66.882812 305.796875 70.546875 C 313.464844 70.546875 321.132812 70.546875 329.03125 70.546875 C 329.03125 86.066406 329.03125 101.582031 329.03125 117.574219 C 313.691406 117.574219 298.359375 117.574219 282.5625 117.574219 C 282.5625 102.300781 282.5625 87.027344 282.5625 71.292969 C 274.644531 71.292969 266.730469 71.292969 258.574219 71.292969 C 258.574219 63.65625 258.574219 56.019531 258.574219 48.148438 Z M 258.574219 48.148438 "/>
<path style=" stroke:none;fill-rule:nonzero;fill:rgb(32.156864%,31.37255%,30.588236%);fill-opacity:1;" d="M 47.21875 0.375 C 55.136719 0.375 63.046875 0.375 71.199219 0.375 C 71.695312 6.300781 72.058594 12.019531 72.046875 17.933594 C 72.046875 18.738281 72.054688 19.542969 72.054688 20.378906 C 72.054688 23.015625 72.054688 25.644531 72.054688 28.28125 C 72.054688 30.125 72.054688 31.960938 72.054688 33.804688 C 72.054688 37.648438 72.054688 41.484375 72.046875 45.328125 C 72.046875 50.261719 72.046875 55.191406 72.054688 60.125 C 72.054688 63.921875 72.054688 67.710938 72.054688 71.507812 C 72.054688 73.328125 72.054688 75.148438 72.054688 76.964844 C 72.054688 79.496094 72.054688 82.027344 72.046875 84.558594 C 72.046875 85.316406 72.054688 86.070312 72.054688 86.851562 C 72.054688 87.535156 72.046875 88.222656 72.046875 88.929688 C 72.046875 89.527344 72.046875 90.125 72.046875 90.742188 C 71.953125 92.195312 71.953125 92.195312 71.199219 93.6875 C 71.878906 93.679688 72.554688 93.679688 73.257812 93.675781 C 75.757812 93.664062 78.265625 93.652344 80.765625 93.644531 C 81.851562 93.640625 82.941406 93.632812 84.019531 93.628906 C 85.582031 93.621094 87.136719 93.617188 88.695312 93.617188 C 89.632812 93.609375 90.574219 93.605469 91.535156 93.597656 C 93.6875 93.6875 93.6875 93.6875 94.433594 94.433594 C 94.503906 96.140625 94.515625 97.855469 94.511719 99.570312 C 94.511719 100.503906 94.503906 101.445312 94.503906 102.410156 C 94.5 103.613281 94.492188 104.816406 94.480469 106.050781 C 94.46875 109.851562 94.453125 113.65625 94.433594 117.574219 C 86.523438 117.574219 78.609375 117.574219 70.453125 117.574219 C 70.453125 109.941406 70.453125 102.300781 70.453125 94.433594 C 62.785156 94.433594 55.117188 94.433594 47.21875 94.433594 C 47.21875 63.394531 47.21875 32.355469 47.21875 0.375 Z M 47.21875 0.375 "/>
<path style=" stroke:none;fill-rule:nonzero;fill:rgb(51.764709%,48.235294%,48.235294%);fill-opacity:1;" d="M 211.355469 212.382812 C 211.609375 212.382812 211.851562 212.382812 212.109375 212.382812 C 213.15625 244.636719 213.15625 244.636719 212.109375 258.664062 C 212.6875 258.640625 213.273438 258.617188 213.871094 258.59375 C 228.789062 258.027344 243.648438 257.847656 258.574219 257.917969 C 258.574219 265.804688 258.574219 273.683594 258.574219 281.804688 C 250.90625 281.804688 243.242188 281.804688 235.34375 281.804688 C 235.34375 297.324219 235.34375 312.84375 235.34375 328.835938 C 217.351562 328.835938 217.351562 328.835938 211.355469 328.089844 C 211.355469 289.90625 211.355469 251.722656 211.355469 212.382812 Z M 211.355469 212.382812 "/>
<path style=" stroke:none;fill-rule:nonzero;fill:rgb(99.607843%,99.215686%,98.431373%);fill-opacity:1;" d="M 235.34375 117.574219 C 243.011719 117.574219 250.679688 117.574219 258.574219 117.574219 C 258.574219 125.210938 258.574219 132.847656 258.574219 140.714844 C 266.492188 140.714844 274.40625 140.714844 282.5625 140.714844 C 282.5625 148.351562 282.5625 155.992188 282.5625 163.859375 C 273.582031 163.875 264.605469 163.886719 255.628906 163.898438 C 251.460938 163.898438 247.289062 163.90625 243.125 163.917969 C 239.101562 163.921875 235.089844 163.929688 231.066406 163.929688 C 229.53125 163.929688 227.992188 163.933594 226.457031 163.941406 C 224.3125 163.941406 222.167969 163.945312 220.023438 163.945312 C 219.378906 163.945312 218.738281 163.945312 218.078125 163.953125 C 213.695312 163.945312 213.695312 163.945312 212.859375 163.113281 C 212.78125 161.570312 212.757812 160.03125 212.757812 158.492188 C 212.757812 157.554688 212.753906 156.621094 212.753906 155.652344 C 212.757812 155.164062 212.757812 154.671875 212.757812 154.164062 C 212.765625 152.667969 212.757812 151.167969 212.753906 149.667969 C 212.753906 148.730469 212.757812 147.796875 212.757812 146.828125 C 212.757812 145.527344 212.757812 145.527344 212.757812 144.203125 C 212.859375 142.210938 212.859375 142.210938 213.605469 141.464844 C 215.214844 141.398438 216.828125 141.382812 218.433594 141.394531 C 219.316406 141.394531 220.199219 141.394531 221.105469 141.394531 C 222.230469 141.40625 223.359375 141.410156 224.523438 141.417969 C 228.09375 141.433594 231.664062 141.445312 235.34375 141.464844 C 235.34375 133.578125 235.34375 125.699219 235.34375 117.574219 Z M 235.34375 117.574219 "/>
<path style=" stroke:none;fill-rule:nonzero;fill:rgb(98.823529%,89.803922%,59.607846%);fill-opacity:1;" d="M 305.796875 46.65625 C 317.667969 47.023438 317.667969 47.023438 329.78125 47.402344 C 329.78125 55.039062 329.78125 62.679688 329.78125 70.546875 C 337.449219 70.546875 345.113281 70.546875 353.015625 70.546875 C 353.015625 101.582031 353.015625 132.621094 353.015625 164.605469 C 345.347656 164.605469 337.679688 164.605469 329.78125 164.605469 C 329.78125 165.835938 329.78125 167.066406 329.78125 168.335938 C 329.535156 168.335938 329.285156 168.335938 329.03125 168.335938 C 329.03125 166.863281 329.03125 165.378906 329.03125 163.859375 C 336.699219 163.859375 344.367188 163.859375 352.265625 163.859375 C 352.265625 148.585938 352.265625 133.308594 352.265625 117.574219 C 344.59375 117.574219 336.925781 117.574219 329.03125 117.574219 C 329.03125 102.054688 329.03125 86.535156 329.03125 70.546875 C 321.367188 70.546875 313.691406 70.546875 305.796875 70.546875 C 305.796875 62.660156 305.796875 54.78125 305.796875 46.65625 Z M 305.796875 46.65625 "/>
<path style=" stroke:none;fill-rule:nonzero;fill:rgb(50.196081%,47.058824%,48.235294%);fill-opacity:1;" d="M 235.34375 304.949219 C 250.925781 304.949219 266.503906 304.949219 282.5625 304.949219 C 283.542969 306.90625 283.410156 308.371094 283.410156 310.5625 C 283.410156 311.386719 283.410156 312.207031 283.410156 313.058594 C 283.410156 313.921875 283.410156 314.785156 283.40625 315.679688 C 283.40625 316.535156 283.410156 317.394531 283.410156 318.28125 C 283.410156 319.109375 283.410156 319.929688 283.410156 320.78125 C 283.410156 321.539062 283.410156 322.296875 283.410156 323.074219 C 283.3125 325.101562 283.3125 325.101562 282.5625 328.089844 C 274.894531 328.089844 267.230469 328.089844 259.328125 328.089844 C 259.386719 335.109375 259.386719 335.109375 259.460938 342.140625 C 259.46875 343.007812 259.46875 343.882812 259.472656 344.78125 C 259.484375 346.128906 259.484375 346.128906 259.496094 347.5 C 259.328125 349.738281 259.328125 349.738281 257.828125 351.976562 C 255.769531 352.269531 255.769531 352.269531 253.167969 352.273438 C 251.773438 352.28125 251.773438 352.28125 250.347656 352.28125 C 248.878906 352.269531 248.878906 352.269531 247.382812 352.257812 C 245.917969 352.269531 245.917969 352.269531 244.425781 352.28125 C 243.492188 352.28125 242.5625 352.28125 241.597656 352.273438 C 240.3125 352.269531 240.3125 352.269531 238.996094 352.269531 C 236.839844 351.976562 236.839844 351.976562 235.433594 351.085938 C 234.28125 349.242188 234.328125 347.953125 234.347656 345.785156 C 234.351562 344.972656 234.351562 344.15625 234.359375 343.316406 C 234.375 342.4375 234.386719 341.550781 234.40625 340.640625 C 234.417969 339.730469 234.421875 338.820312 234.429688 337.882812 C 234.554688 326.898438 234.953125 315.921875 235.34375 304.949219 Z M 235.34375 304.949219 "/>
<path style=" stroke:none;fill-rule:nonzero;fill:rgb(99.215686%,99.215686%,99.215686%);fill-opacity:1;" d="M 329.03125 117.574219 C 336.699219 117.574219 344.367188 117.574219 352.265625 117.574219 C 352.265625 132.847656 352.265625 148.125 352.265625 163.859375 C 344.59375 163.859375 336.925781 163.859375 329.03125 163.859375 C 329.277344 165.332031 329.523438 166.816406 329.78125 168.335938 C 329.839844 169.902344 329.863281 171.457031 329.851562 173.019531 C 329.851562 173.796875 329.851562 174.570312 329.84375 175.375 C 329.839844 176.34375 329.832031 177.320312 329.828125 178.320312 C 329.808594 181.429688 329.796875 184.542969 329.78125 187.746094 C 321.863281 187.746094 313.949219 187.746094 305.796875 187.746094 C 305.796875 179.863281 305.796875 171.984375 305.796875 163.859375 C 316.925781 163.492188 316.925781 163.492188 328.277344 163.113281 C 328.53125 148.082031 328.773438 133.058594 329.03125 117.574219 Z M 329.03125 117.574219 "/>
<path style=" stroke:none;fill-rule:nonzero;fill:rgb(92.941177%,92.156863%,83.137256%);fill-opacity:1;" d="M 211.355469 140.714844 C 219.273438 140.714844 227.1875 140.714844 235.34375 140.714844 C 235.34375 140.960938 235.34375 141.207031 235.34375 141.464844 C 228.167969 141.707031 221 141.953125 213.605469 142.210938 C 213.605469 149.109375 213.605469 156.003906 213.605469 163.113281 C 236.117188 163.355469 258.621094 163.601562 281.808594 163.859375 C 281.808594 171.742188 281.808594 179.621094 281.808594 187.746094 C 274.394531 187.746094 266.972656 187.746094 259.328125 187.746094 C 259.328125 180.113281 259.328125 172.472656 259.328125 164.605469 C 251.410156 164.605469 243.496094 164.605469 235.34375 164.605469 C 235.34375 172.238281 235.34375 179.878906 235.34375 187.746094 C 227.671875 187.746094 220.003906 187.746094 212.109375 187.746094 C 212.109375 195.136719 212.109375 202.523438 212.109375 210.140625 C 211.859375 210.140625 211.613281 210.140625 211.355469 210.140625 C 211.355469 187.234375 211.355469 164.320312 211.355469 140.714844 Z M 211.355469 140.714844 "/>
<path style=" stroke:none;fill-rule:nonzero;fill:rgb(51.372552%,47.450981%,47.058824%);fill-opacity:1;" d="M 235.34375 234.777344 C 243.257812 234.777344 251.171875 234.777344 259.328125 234.777344 C 259.328125 242.410156 259.328125 250.050781 259.328125 257.917969 C 266.996094 257.917969 274.660156 257.917969 282.5625 257.917969 C 283.347656 260.261719 283.410156 261.917969 283.410156 264.378906 C 283.410156 265.203125 283.410156 266.03125 283.410156 266.875 C 283.410156 267.738281 283.410156 268.601562 283.40625 269.488281 C 283.40625 270.351562 283.410156 271.210938 283.410156 272.101562 C 283.410156 272.921875 283.410156 273.746094 283.410156 274.597656 C 283.410156 275.355469 283.410156 276.109375 283.410156 276.890625 C 283.3125 278.820312 283.3125 278.820312 282.5625 281.058594 C 274.644531 281.058594 266.730469 281.058594 258.574219 281.058594 C 258.574219 273.425781 258.574219 265.785156 258.574219 257.917969 C 250.90625 257.917969 243.242188 257.917969 235.34375 257.917969 C 235.34375 250.285156 235.34375 242.644531 235.34375 234.777344 Z M 235.34375 234.777344 "/>
<path style=" stroke:none;fill-rule:nonzero;fill:rgb(98.823529%,89.803922%,60.000002%);fill-opacity:1;" d="M 235.34375 164.605469 C 243.257812 164.605469 251.171875 164.605469 259.328125 164.605469 C 259.378906 176.53125 259.386719 188.429688 259 200.34375 C 258.972656 201.3125 258.941406 202.285156 258.90625 203.28125 C 258.878906 204.175781 258.847656 205.066406 258.8125 205.984375 C 258.785156 206.769531 258.761719 207.558594 258.730469 208.367188 C 258.574219 210.140625 258.574219 210.140625 257.828125 210.886719 C 250.410156 210.886719 242.988281 210.886719 235.34375 210.886719 C 235.34375 195.613281 235.34375 180.339844 235.34375 164.605469 Z M 235.34375 164.605469 "/>
<path style=" stroke:none;fill-rule:nonzero;fill:rgb(97.254902%,78.823531%,32.549021%);fill-opacity:1;" d="M 212.109375 211.632812 C 219.777344 211.632812 227.445312 211.632812 235.34375 211.632812 C 235.34375 227.152344 235.34375 242.671875 235.34375 258.664062 C 227.671875 258.664062 220.003906 258.664062 212.109375 258.664062 C 212.109375 243.144531 212.109375 227.625 212.109375 211.632812 Z M 212.109375 211.632812 "/>
<path style=" stroke:none;fill-rule:nonzero;fill:rgb(99.215686%,99.215686%,98.431373%);fill-opacity:1;" d="M 141.652344 117.574219 C 149.324219 117.574219 156.992188 117.574219 164.886719 117.574219 C 164.886719 132.847656 164.886719 148.125 164.886719 163.859375 C 157.21875 163.859375 149.554688 163.859375 141.652344 163.859375 C 141.652344 148.585938 141.652344 133.308594 141.652344 117.574219 Z M 141.652344 117.574219 "/>
<path style=" stroke:none;fill-rule:nonzero;fill:rgb(74.901962%,73.725492%,74.117649%);fill-opacity:1;" d="M 258.574219 257.917969 C 258.574219 265.550781 258.574219 273.191406 258.574219 281.058594 C 243.242188 281.058594 227.90625 281.058594 212.109375 281.058594 C 212.109375 273.671875 212.109375 266.28125 212.109375 258.664062 C 227.632812 258.09375 243.046875 257.847656 258.574219 257.917969 Z M 258.574219 257.917969 "/>
<path style=" stroke:none;fill-rule:nonzero;fill:rgb(98.823529%,89.803922%,59.607846%);fill-opacity:1;" d="M 259.328125 211.632812 C 266.742188 211.632812 274.164062 211.632812 281.808594 211.632812 C 281.828125 217.128906 281.84375 222.617188 281.851562 228.109375 C 281.855469 230.664062 281.863281 233.226562 281.867188 235.78125 C 281.878906 238.714844 281.878906 241.652344 281.886719 244.585938 C 281.890625 245.5 281.890625 246.417969 281.898438 247.363281 C 281.898438 248.640625 281.898438 248.640625 281.898438 249.941406 C 281.898438 250.691406 281.902344 251.4375 281.902344 252.207031 C 281.808594 254.183594 281.808594 254.183594 281.0625 257.171875 C 273.890625 257.171875 266.714844 257.171875 259.328125 257.171875 C 259.328125 242.140625 259.328125 227.117188 259.328125 211.632812 Z M 259.328125 211.632812 "/>
<path style=" stroke:none;fill-rule:nonzero;fill:rgb(93.725491%,85.882354%,60.392159%);fill-opacity:1;" d="M 305.796875 46.65625 C 317.667969 47.023438 317.667969 47.023438 329.78125 47.402344 C 329.78125 55.039062 329.78125 62.679688 329.78125 70.546875 C 337.449219 70.546875 345.113281 70.546875 353.015625 70.546875 C 353.015625 101.582031 353.015625 132.621094 353.015625 164.605469 C 345.347656 164.605469 337.679688 164.605469 329.78125 164.605469 C 329.78125 165.835938 329.78125 167.066406 329.78125 168.335938 C 329.535156 168.335938 329.285156 168.335938 329.03125 168.335938 C 329.03125 166.863281 329.03125 165.378906 329.03125 163.859375 C 336.699219 163.859375 344.367188 163.859375 352.265625 163.859375 C 352.265625 133.308594 352.265625 102.761719 352.265625 71.292969 C 344.59375 71.292969 336.925781 71.292969 329.03125 71.292969 C 324.667969 71.191406 320.320312 71.085938 315.960938 70.917969 C 312.605469 70.796875 309.25 70.671875 305.796875 70.546875 C 305.796875 62.660156 305.796875 54.78125 305.796875 46.65625 Z M 305.796875 46.65625 "/>
<path style=" stroke:none;fill-rule:nonzero;fill:rgb(32.941177%,32.941177%,32.941177%);fill-opacity:1;" d="M 240.46875 327.988281 C 240.984375 327.988281 241.5 327.988281 242.023438 327.988281 C 243.113281 327.988281 244.199219 327.988281 245.285156 327.988281 C 246.949219 327.996094 248.621094 327.988281 250.289062 327.984375 C 251.339844 327.988281 252.398438 327.988281 253.449219 327.988281 C 254.414062 327.988281 255.378906 327.988281 256.371094 327.988281 C 258.574219 328.089844 258.574219 328.089844 259.328125 328.835938 C 259.515625 332.28125 259.46875 335.742188 259.46875 339.195312 C 259.472656 340.167969 259.484375 341.140625 259.496094 342.144531 C 259.496094 343.078125 259.496094 344.011719 259.496094 344.972656 C 259.503906 345.832031 259.503906 346.695312 259.507812 347.574219 C 259.328125 349.738281 259.328125 349.738281 257.828125 351.976562 C 255.769531 352.269531 255.769531 352.269531 253.167969 352.273438 C 251.773438 352.28125 251.773438 352.28125 250.347656 352.28125 C 248.878906 352.269531 248.878906 352.269531 247.382812 352.257812 C 245.917969 352.269531 245.917969 352.269531 244.425781 352.28125 C 243.492188 352.28125 242.5625 352.28125 241.597656 352.273438 C 240.3125 352.269531 240.3125 352.269531 238.996094 352.269531 C 236.839844 351.976562 236.839844 351.976562 235.433594 351.136719 C 234.1875 349.0625 234.328125 347.375 234.347656 344.972656 C 234.351562 344.039062 234.359375 343.105469 234.359375 342.144531 C 234.382812 340.6875 234.382812 340.6875 234.40625 339.195312 C 234.410156 338.214844 234.417969 337.234375 234.417969 336.21875 C 234.484375 327.996094 234.484375 327.996094 240.46875 327.988281 Z M 240.46875 327.988281 "/>
<path style=" stroke:none;fill-rule:nonzero;fill:rgb(74.117649%,73.333335%,73.725492%);fill-opacity:1;" d="M 212.109375 304.949219 C 219.777344 304.949219 227.445312 304.949219 235.34375 304.949219 C 235.34375 312.832031 235.34375 320.710938 235.34375 328.835938 C 231.074219 328.859375 231.074219 328.859375 226.726562 328.882812 C 225.835938 328.886719 224.957031 328.894531 224.042969 328.90625 C 219.738281 328.910156 215.609375 328.742188 211.355469 328.089844 C 211.339844 324.792969 211.320312 321.492188 211.308594 318.199219 C 211.304688 317.257812 211.296875 316.324219 211.292969 315.363281 C 211.292969 314.460938 211.285156 313.5625 211.285156 312.632812 C 211.28125 311.804688 211.273438 310.976562 211.273438 310.121094 C 211.355469 307.933594 211.355469 307.933594 212.109375 304.949219 Z M 212.109375 304.949219 "/>
<path style=" stroke:none;fill-rule:nonzero;fill:rgb(32.941177%,32.549021%,31.37255%);fill-opacity:1;" d="M 235.34375 234.777344 C 243.011719 234.777344 250.679688 234.777344 258.574219 234.777344 C 258.574219 242.410156 258.574219 250.050781 258.574219 257.917969 C 250.90625 257.917969 243.242188 257.917969 235.34375 257.917969 C 235.34375 250.285156 235.34375 242.644531 235.34375 234.777344 Z M 235.34375 234.777344 "/>
<path style=" stroke:none;fill-rule:nonzero;fill:rgb(98.823529%,89.803922%,60.000002%);fill-opacity:1;" d="M 212.109375 211.632812 C 219.777344 211.632812 227.445312 211.632812 235.34375 211.632812 C 235.34375 219.269531 235.34375 226.910156 235.34375 234.777344 C 227.671875 234.777344 220.003906 234.777344 212.109375 234.777344 C 212.109375 227.140625 212.109375 219.503906 212.109375 211.632812 Z M 212.109375 211.632812 "/>
<path style=" stroke:none;fill-rule:nonzero;fill:rgb(97.254902%,78.823531%,32.549021%);fill-opacity:1;" d="M 235.34375 187.746094 C 243.011719 187.746094 250.679688 187.746094 258.574219 187.746094 C 258.589844 191.425781 258.609375 195.105469 258.625 198.898438 C 258.632812 200.058594 258.636719 201.222656 258.644531 202.421875 C 258.644531 203.328125 258.648438 204.234375 258.648438 205.171875 C 258.65625 206.574219 258.65625 206.574219 258.660156 208 C 258.574219 210.140625 258.574219 210.140625 257.828125 210.886719 C 256.167969 210.953125 254.5 210.96875 252.835938 210.957031 C 251.925781 210.957031 251.011719 210.957031 250.078125 210.957031 C 248.910156 210.945312 247.738281 210.941406 246.535156 210.933594 C 242.84375 210.917969 239.148438 210.90625 235.34375 210.886719 C 235.34375 203.253906 235.34375 195.613281 235.34375 187.746094 Z M 235.34375 187.746094 "/>
<path style=" stroke:none;fill-rule:nonzero;fill:rgb(99.215686%,99.215686%,98.431373%);fill-opacity:1;" d="M 164.886719 164.605469 C 172.554688 164.605469 180.226562 164.605469 188.121094 164.605469 C 188.121094 171.992188 188.121094 179.382812 188.121094 187 C 180.453125 187 172.789062 187 164.886719 187 C 164.753906 184.96875 164.613281 182.933594 164.464844 180.839844 C 164.417969 180.222656 164.378906 179.597656 164.328125 178.964844 C 164.023438 173.984375 164.460938 169.730469 164.886719 164.605469 Z M 164.886719 164.605469 "/>
<path style=" stroke:none;fill-rule:nonzero;fill:rgb(96.862745%,78.823531%,33.333334%);fill-opacity:1;" d="M 259.328125 234.777344 C 266.742188 234.777344 274.164062 234.777344 281.808594 234.777344 C 281.832031 239.488281 281.832031 239.488281 281.855469 244.292969 C 281.867188 245.28125 281.875 246.265625 281.878906 247.28125 C 281.878906 248.0625 281.886719 248.84375 281.886719 249.648438 C 281.890625 250.84375 281.890625 250.84375 281.898438 252.0625 C 281.808594 254.183594 281.808594 254.183594 281.0625 257.171875 C 273.890625 257.171875 266.714844 257.171875 259.328125 257.171875 C 259.328125 249.78125 259.328125 242.394531 259.328125 234.777344 Z M 259.328125 234.777344 "/>
<path style=" stroke:none;fill-rule:nonzero;fill:rgb(74.901962%,74.117649%,74.117649%);fill-opacity:1;" d="M 212.859375 187.746094 C 220.027344 187.746094 227.203125 187.746094 234.589844 187.746094 C 234.589844 195.136719 234.589844 202.523438 234.589844 210.140625 C 227.917969 210.140625 221.238281 210.140625 214.355469 210.140625 C 213.015625 206.800781 212.675781 205.382812 212.710938 201.964844 C 212.710938 201.210938 212.71875 200.464844 212.722656 199.695312 C 212.734375 198.75 212.746094 197.8125 212.765625 196.84375 C 212.792969 193.839844 212.824219 190.835938 212.859375 187.746094 Z M 212.859375 187.746094 "/>
<path style=" stroke:none;fill-rule:nonzero;fill:rgb(77.64706%,65.490198%,35.294119%);fill-opacity:1;" d="M 140.90625 1.121094 C 148.824219 1.121094 156.734375 1.121094 164.886719 1.121094 C 164.886719 39.546875 164.886719 77.980469 164.886719 117.574219 C 156.976562 117.574219 149.0625 117.574219 140.90625 117.574219 C 140.90625 102.300781 140.90625 87.027344 140.90625 71.292969 C 125.324219 71.292969 109.738281 71.292969 93.6875 71.292969 C 93.6875 54.789062 93.6875 38.28125 93.6875 21.277344 C 93.933594 21.277344 94.183594 21.277344 94.433594 21.277344 C 94.433594 37.535156 94.433594 53.796875 94.433594 70.546875 C 110.019531 70.546875 125.601562 70.546875 141.652344 70.546875 C 141.652344 85.574219 141.652344 100.597656 141.652344 116.082031 C 148.582031 115.835938 155.507812 115.59375 162.644531 115.335938 C 162.890625 77.894531 163.132812 40.445312 163.390625 1.867188 C 156.710938 1.867188 150.03125 1.867188 143.15625 1.867188 C 142.910156 16.15625 142.65625 30.445312 142.40625 45.164062 C 142.898438 45.410156 143.394531 45.652344 143.902344 45.910156 C 142.417969 46.652344 142.417969 46.652344 140.90625 47.402344 C 140.90625 32.128906 140.90625 16.855469 140.90625 1.121094 Z M 140.90625 1.121094 "/>
<path style=" stroke:none;fill-rule:nonzero;fill:rgb(83.92157%,77.254903%,59.215689%);fill-opacity:1;" d="M 187.375 187.746094 C 187.621094 187.746094 187.871094 187.746094 188.121094 187.746094 C 188.121094 195.378906 188.121094 203.019531 188.121094 210.886719 C 195.542969 210.886719 202.964844 210.886719 210.609375 210.886719 C 211.679688 208.765625 211.527344 206.886719 211.597656 204.515625 C 211.644531 203.054688 211.644531 203.054688 211.691406 201.570312 C 211.71875 200.535156 211.75 199.511719 211.777344 198.476562 C 211.8125 197.4375 211.847656 196.40625 211.875 195.367188 C 211.957031 192.828125 212.035156 190.289062 212.109375 187.746094 C 212.355469 187.746094 212.601562 187.746094 212.859375 187.746094 C 212.875 188.292969 212.894531 188.835938 212.917969 189.402344 C 213.003906 191.882812 213.09375 194.367188 213.1875 196.84375 C 213.214844 197.703125 213.246094 198.566406 213.273438 199.445312 C 213.308594 200.28125 213.335938 201.109375 213.371094 201.964844 C 213.414062 203.109375 213.414062 203.109375 213.453125 204.273438 C 213.582031 206.6875 213.582031 206.6875 214.355469 210.140625 C 221.035156 210.140625 227.714844 210.140625 234.589844 210.140625 C 234.589844 202.753906 234.589844 195.363281 234.589844 187.746094 C 234.84375 187.746094 235.089844 187.746094 235.34375 187.746094 C 235.34375 195.378906 235.34375 203.019531 235.34375 210.886719 C 242.761719 210.644531 250.183594 210.398438 257.828125 210.140625 C 258.078125 202.753906 258.324219 195.363281 258.574219 187.746094 C 258.824219 187.746094 259.070312 187.746094 259.328125 187.746094 C 259.328125 195.378906 259.328125 203.019531 259.328125 210.886719 C 266.742188 210.886719 274.164062 210.886719 281.808594 210.886719 C 281.808594 203.253906 281.808594 195.613281 281.808594 187.746094 C 282.058594 187.746094 282.304688 187.746094 282.5625 187.746094 C 282.5625 195.378906 282.5625 203.019531 282.5625 210.886719 C 290.230469 210.886719 297.898438 210.886719 305.796875 210.886719 C 305.796875 211.132812 305.796875 211.378906 305.796875 211.632812 C 298.128906 211.632812 290.464844 211.632812 282.5625 211.632812 C 282.5625 226.910156 282.5625 242.183594 282.5625 257.917969 C 274.894531 257.917969 267.230469 257.917969 259.328125 257.917969 C 259.328125 257.671875 259.328125 257.429688 259.328125 257.171875 C 266.5 257.171875 273.675781 257.171875 281.0625 257.171875 C 281.3125 242.140625 281.558594 227.117188 281.808594 211.632812 C 274.394531 211.632812 266.972656 211.632812 259.328125 211.632812 C 259.328125 219.269531 259.328125 226.910156 259.328125 234.777344 C 259.078125 234.777344 258.832031 234.777344 258.574219 234.777344 C 258.574219 227.632812 258.574219 220.488281 258.574219 213.128906 C 247.449219 212.761719 247.449219 212.761719 236.09375 212.382812 C 236.09375 219.527344 236.09375 226.667969 236.09375 234.03125 C 235.84375 234.03125 235.597656 234.03125 235.34375 234.03125 C 235.34375 226.640625 235.34375 219.25 235.34375 211.632812 C 231.878906 211.773438 228.414062 211.914062 224.851562 212.054688 C 212.308594 212.496094 199.914062 212.136719 187.375 211.632812 C 187.375 203.75 187.375 195.871094 187.375 187.746094 Z M 187.375 187.746094 "/>
<path style=" stroke:none;fill-rule:nonzero;fill:rgb(96.862745%,95.294118%,87.058824%);fill-opacity:1;" d="M 329.03125 117.574219 C 336.699219 117.574219 344.367188 117.574219 352.265625 117.574219 C 352.015625 118.316406 351.769531 119.050781 351.511719 119.816406 C 351.023438 119.570312 350.527344 119.324219 350.015625 119.066406 C 348.542969 119.003906 347.078125 118.988281 345.605469 119 C 344.296875 119 344.296875 119 342.957031 119.003906 C 342.039062 119.011719 341.125 119.015625 340.175781 119.019531 C 339.257812 119.027344 338.335938 119.027344 337.382812 119.03125 C 335.097656 119.039062 332.8125 119.050781 330.527344 119.066406 C 330.535156 119.609375 330.539062 120.160156 330.550781 120.71875 C 330.609375 125.863281 330.65625 131 330.6875 136.136719 C 330.699219 138.785156 330.722656 141.429688 330.757812 144.070312 C 330.792969 147.109375 330.808594 150.148438 330.820312 153.1875 C 330.839844 154.136719 330.855469 155.082031 330.867188 156.0625 C 330.867188 156.941406 330.867188 157.820312 330.867188 158.730469 C 330.878906 159.507812 330.886719 160.285156 330.890625 161.082031 C 330.433594 163.648438 329.585938 164.527344 327.53125 166.097656 C 325.261719 166.367188 325.261719 166.367188 322.644531 166.226562 C 321.804688 166.191406 320.957031 166.148438 320.085938 166.109375 C 318.484375 166.011719 318.484375 166.011719 316.847656 165.910156 C 313.445312 165.726562 310.050781 165.542969 306.546875 165.351562 C 306.546875 172.496094 306.546875 179.640625 306.546875 187 C 313.96875 187 321.382812 187 329.03125 187 C 329.03125 184.289062 329.03125 181.582031 329.03125 178.789062 C 329.277344 178.789062 329.523438 178.789062 329.78125 178.789062 C 329.78125 181.746094 329.78125 184.703125 329.78125 187.746094 C 321.863281 187.746094 313.949219 187.746094 305.796875 187.746094 C 305.796875 179.863281 305.796875 171.984375 305.796875 163.859375 C 316.925781 163.492188 316.925781 163.492188 328.277344 163.113281 C 328.53125 148.082031 328.773438 133.058594 329.03125 117.574219 Z M 329.03125 117.574219 "/>
<path style=" stroke:none;fill-rule:nonzero;fill:rgb(89.803922%,86.274511%,72.549021%);fill-opacity:1;" d="M 140.90625 117.574219 C 141.15625 117.574219 141.402344 117.574219 141.652344 117.574219 C 141.652344 132.847656 141.652344 148.125 141.652344 163.859375 C 149.324219 163.859375 156.992188 163.859375 164.886719 163.859375 C 164.886719 148.585938 164.886719 133.308594 164.886719 117.574219 C 180.472656 117.574219 196.050781 117.574219 212.109375 117.574219 C 212.109375 117.820312 212.109375 118.066406 212.109375 118.320312 C 197.023438 118.566406 181.933594 118.8125 166.390625 119.066406 C 166.144531 133.601562 165.890625 148.136719 165.640625 163.113281 C 172.070312 162.867188 178.503906 162.621094 185.125 162.367188 C 186.117188 162.855469 187.105469 163.351562 188.121094 163.859375 C 188.121094 164.101562 188.121094 164.347656 188.121094 164.605469 C 180.453125 164.605469 172.789062 164.605469 164.886719 164.605469 C 164.886719 167.5625 164.886719 170.519531 164.886719 173.5625 C 164.640625 173.5625 164.394531 173.5625 164.140625 173.5625 C 164.140625 170.605469 164.140625 167.648438 164.140625 164.605469 C 156.472656 164.605469 148.804688 164.605469 140.90625 164.605469 C 140.90625 149.085938 140.90625 133.566406 140.90625 117.574219 Z M 140.90625 117.574219 "/>
<path style=" stroke:none;fill-rule:nonzero;fill:rgb(99.607843%,98.431373%,90.980393%);fill-opacity:1;" d="M 234.589844 47.402344 C 234.84375 47.402344 235.089844 47.402344 235.34375 47.402344 C 235.34375 55.039062 235.34375 62.679688 235.34375 70.546875 C 227.671875 70.546875 220.003906 70.546875 212.109375 70.546875 C 212.109375 86.066406 212.109375 101.582031 212.109375 117.574219 C 204.191406 117.574219 196.28125 117.574219 188.121094 117.574219 C 188.121094 117.085938 188.121094 116.589844 188.121094 116.082031 C 195.542969 116.082031 202.964844 116.082031 210.609375 116.082031 C 210.601562 112.804688 210.589844 109.527344 210.585938 106.144531 C 210.578125 103.539062 210.574219 100.929688 210.566406 98.324219 C 210.566406 95.570312 210.5625 92.8125 210.550781 90.058594 C 210.542969 87.40625 210.539062 84.753906 210.539062 82.097656 C 210.539062 81.082031 210.53125 80.070312 210.53125 79.058594 C 210.527344 77.644531 210.527344 76.226562 210.527344 74.808594 C 210.519531 74.003906 210.519531 73.191406 210.519531 72.363281 C 210.609375 70.546875 210.609375 70.546875 211.355469 69.800781 C 213.074219 69.734375 214.792969 69.71875 216.515625 69.730469 C 217.289062 69.730469 217.289062 69.730469 218.070312 69.730469 C 219.726562 69.734375 221.371094 69.742188 223.019531 69.753906 C 224.136719 69.757812 225.253906 69.757812 226.371094 69.765625 C 229.109375 69.769531 231.851562 69.789062 234.589844 69.800781 C 234.589844 62.410156 234.589844 55.019531 234.589844 47.402344 Z M 234.589844 47.402344 "/>
<path style=" stroke:none;fill-rule:nonzero;fill:rgb(92.156863%,78.039217%,43.921569%);fill-opacity:1;" d="M 212.859375 234.777344 C 220.28125 234.777344 227.695312 234.777344 235.34375 234.777344 C 235.34375 242.660156 235.34375 250.539062 235.34375 258.664062 C 227.671875 258.664062 220.003906 258.664062 212.109375 258.664062 C 212.09375 256.109375 212.074219 253.554688 212.0625 250.917969 C 212.050781 250.132812 212.046875 249.339844 212.039062 248.527344 C 212.039062 247.882812 212.035156 247.234375 212.035156 246.5625 C 212.027344 245.914062 212.027344 245.261719 212.023438 244.597656 C 212.140625 241.3125 212.53125 238.042969 212.859375 234.777344 Z M 213.605469 236.269531 C 213.605469 242.917969 213.605469 249.570312 213.605469 256.425781 C 220.53125 256.425781 227.457031 256.425781 234.589844 256.425781 C 234.609375 253.113281 234.625 249.804688 234.636719 246.394531 C 234.644531 245.351562 234.65625 244.300781 234.660156 243.226562 C 234.660156 242.410156 234.660156 241.59375 234.667969 240.75 C 234.667969 239.910156 234.671875 239.070312 234.679688 238.207031 C 234.8125 236.320312 234.8125 236.320312 233.84375 235.523438 C 232.535156 235.445312 231.226562 235.421875 229.917969 235.421875 C 228.71875 235.421875 228.71875 235.421875 227.492188 235.417969 C 226.648438 235.421875 225.808594 235.421875 224.945312 235.429688 C 224.109375 235.429688 223.273438 235.421875 222.414062 235.417969 C 221.613281 235.421875 220.8125 235.421875 219.980469 235.421875 C 219.246094 235.421875 218.507812 235.421875 217.75 235.421875 C 215.761719 235.441406 215.761719 235.441406 213.605469 236.269531 Z M 213.605469 236.269531 "/>
<path style=" stroke:none;fill-rule:nonzero;fill:rgb(53.333336%,43.921569%,22.352941%);fill-opacity:1;" d="M 47.21875 1.121094 C 47.464844 1.121094 47.714844 1.121094 47.964844 1.121094 C 47.964844 31.667969 47.964844 62.21875 47.964844 93.6875 C 54.894531 93.441406 61.820312 93.195312 68.957031 92.941406 C 68.957031 92.449219 68.957031 91.953125 68.957031 91.449219 C 69.699219 91.449219 70.441406 91.449219 71.199219 91.449219 C 71.199219 90.21875 71.199219 88.988281 71.199219 87.714844 C 71.453125 87.714844 71.695312 87.714844 71.953125 87.714844 C 71.703125 97.570312 71.457031 107.421875 71.199219 117.574219 C 70.953125 117.574219 70.710938 117.574219 70.453125 117.574219 C 70.453125 109.941406 70.453125 102.300781 70.453125 94.433594 C 62.785156 94.433594 55.117188 94.433594 47.21875 94.433594 C 47.21875 63.640625 47.21875 32.847656 47.21875 1.121094 Z M 47.21875 1.121094 "/>
<path style=" stroke:none;fill-rule:nonzero;fill:rgb(74.117649%,70.19608%,60.000002%);fill-opacity:1;" d="M 187.375 187.746094 C 187.621094 187.746094 187.871094 187.746094 188.121094 187.746094 C 188.121094 195.378906 188.121094 203.019531 188.121094 210.886719 C 195.542969 210.886719 202.964844 210.886719 210.609375 210.886719 C 211.679688 208.765625 211.527344 206.886719 211.597656 204.515625 C 211.644531 203.054688 211.644531 203.054688 211.691406 201.570312 C 211.71875 200.535156 211.75 199.511719 211.777344 198.476562 C 211.8125 197.4375 211.847656 196.40625 211.875 195.367188 C 211.957031 192.828125 212.035156 190.289062 212.109375 187.746094 C 212.355469 187.746094 212.601562 187.746094 212.859375 187.746094 C 212.875 188.292969 212.894531 188.835938 212.917969 189.402344 C 213.003906 191.882812 213.09375 194.367188 213.1875 196.84375 C 213.214844 197.703125 213.246094 198.566406 213.273438 199.445312 C 213.308594 200.28125 213.335938 201.109375 213.371094 201.964844 C 213.414062 203.109375 213.414062 203.109375 213.453125 204.273438 C 213.582031 206.6875 213.582031 206.6875 214.355469 210.140625 C 221.035156 210.140625 227.714844 210.140625 234.589844 210.140625 C 234.589844 202.753906 234.589844 195.363281 234.589844 187.746094 C 234.84375 187.746094 235.089844 187.746094 235.34375 187.746094 C 235.34375 195.632812 235.34375 203.511719 235.34375 211.632812 C 219.222656 212.28125 203.492188 212.28125 187.375 211.632812 C 187.375 203.75 187.375 195.871094 187.375 187.746094 Z M 187.375 187.746094 "/>
<path style=" stroke:none;fill-rule:nonzero;fill:rgb(94.901961%,80.392158%,40.000001%);fill-opacity:1;" d="M 305.796875 70.546875 C 313.464844 70.546875 321.132812 70.546875 329.03125 70.546875 C 329.03125 86.066406 329.03125 101.582031 329.03125 117.574219 C 313.691406 117.574219 298.359375 117.574219 282.5625 117.574219 C 282.5625 115.847656 282.5625 114.128906 282.5625 112.347656 C 284.058594 114.589844 284.058594 114.589844 284.808594 116.082031 C 299.152344 116.082031 313.5 116.082031 328.277344 116.082031 C 328.277344 101.304688 328.277344 86.519531 328.277344 71.292969 C 320.863281 71.292969 313.441406 71.292969 305.796875 71.292969 C 305.796875 71.046875 305.796875 70.800781 305.796875 70.546875 Z M 305.796875 70.546875 "/>
<path style=" stroke:none;fill-rule:nonzero;fill:rgb(93.333334%,78.823531%,41.176471%);fill-opacity:1;" d="M 235.34375 187.746094 C 243.011719 187.746094 250.679688 187.746094 258.574219 187.746094 C 258.589844 191.425781 258.609375 195.105469 258.625 198.898438 C 258.632812 200.058594 258.636719 201.222656 258.644531 202.421875 C 258.644531 203.328125 258.648438 204.234375 258.648438 205.171875 C 258.65625 206.574219 258.65625 206.574219 258.660156 208 C 258.574219 210.140625 258.574219 210.140625 257.828125 210.886719 C 256.167969 210.953125 254.5 210.96875 252.835938 210.957031 C 251.925781 210.957031 251.011719 210.957031 250.078125 210.957031 C 248.910156 210.945312 247.738281 210.941406 246.535156 210.933594 C 242.84375 210.917969 239.148438 210.90625 235.34375 210.886719 C 235.34375 203.253906 235.34375 195.613281 235.34375 187.746094 Z M 236.839844 189.238281 C 236.046875 191.613281 236.003906 193.292969 236.015625 195.78125 C 236.023438 196.53125 236.023438 197.28125 236.023438 198.058594 C 236.027344 199.015625 236.039062 199.964844 236.046875 200.949219 C 236.058594 203.984375 236.074219 207.015625 236.09375 210.140625 C 243.261719 210.140625 250.441406 210.140625 257.828125 210.140625 C 257.582031 202.996094 257.335938 195.851562 257.078125 188.492188 C 254.296875 188.476562 251.515625 188.464844 248.644531 188.445312 C 247.335938 188.433594 247.335938 188.433594 246.003906 188.421875 C 245.308594 188.421875 244.621094 188.421875 243.902344 188.421875 C 243.199219 188.417969 242.492188 188.410156 241.761719 188.40625 C 239.96875 188.488281 238.511719 188.582031 236.839844 189.238281 Z M 236.839844 189.238281 "/>
<path style=" stroke:none;fill-rule:nonzero;fill:rgb(82.352942%,65.882355%,31.764707%);fill-opacity:1;" d="M 140.90625 1.121094 C 141.15625 1.609375 141.402344 2.105469 141.652344 2.613281 C 142.148438 2.859375 142.644531 3.101562 143.15625 3.359375 C 142.910156 17.152344 142.65625 30.953125 142.40625 45.164062 C 142.898438 45.410156 143.394531 45.652344 143.902344 45.910156 C 142.914062 46.402344 141.925781 46.894531 140.90625 47.402344 C 140.90625 32.128906 140.90625 16.855469 140.90625 1.121094 Z M 140.90625 1.121094 "/>
<path style=" stroke:none;fill-rule:nonzero;fill:rgb(75.294119%,62.7451%,29.803923%);fill-opacity:1;" d="M 93.6875 0.375 C 100.613281 0.375 107.535156 0.375 114.671875 0.375 C 114.425781 1.113281 114.179688 1.847656 113.925781 2.613281 C 107.988281 2.859375 102.050781 3.101562 95.9375 3.359375 C 95.441406 8.042969 94.949219 12.71875 94.433594 17.542969 C 94.191406 17.542969 93.945312 17.542969 93.6875 17.542969 C 93.6875 11.875 93.6875 6.210938 93.6875 0.375 Z M 93.6875 0.375 "/>
<path style=" stroke:none;fill-rule:nonzero;fill:rgb(97.254902%,90.980393%,72.156864%);fill-opacity:1;" d="M 212.109375 70.546875 C 219.777344 70.546875 227.445312 70.546875 235.34375 70.546875 C 235.34375 70.789062 235.34375 71.035156 235.34375 71.292969 C 234.433594 71.320312 234.433594 71.320312 233.511719 71.351562 C 230.78125 71.4375 228.046875 71.523438 225.316406 71.617188 C 223.890625 71.664062 223.890625 71.664062 222.429688 71.707031 C 221.523438 71.742188 220.613281 71.769531 219.679688 71.804688 C 218.421875 71.847656 218.421875 71.847656 217.136719 71.886719 C 215.132812 71.910156 215.132812 71.910156 213.605469 72.785156 C 213.359375 87.5625 213.109375 102.347656 212.859375 117.574219 C 212.613281 117.574219 212.363281 117.574219 212.109375 117.574219 C 212.109375 102.054688 212.109375 86.535156 212.109375 70.546875 Z M 212.109375 70.546875 "/>
<path style=" stroke:none;fill-rule:nonzero;fill:rgb(68.235296%,56.862748%,29.019609%);fill-opacity:1;" d="M 0 93.6875 C 7.667969 93.6875 15.335938 93.6875 23.234375 93.6875 C 23.234375 93.933594 23.234375 94.175781 23.234375 94.433594 C 16.066406 94.679688 8.886719 94.921875 1.5 95.179688 C 1.5 102.324219 1.5 109.46875 1.5 116.828125 C 1.003906 117.074219 0.507812 117.320312 0 117.574219 C 0 109.691406 0 101.8125 0 93.6875 Z M 0 93.6875 "/>
<path style=" stroke:none;fill-rule:nonzero;fill:rgb(85.490197%,80.000001%,65.098041%);fill-opacity:1;" d="M 210.609375 209.394531 C 211.105469 209.640625 211.597656 209.886719 212.109375 210.140625 C 213.847656 210.257812 215.59375 210.328125 217.335938 210.375 C 217.847656 210.390625 218.363281 210.410156 218.894531 210.425781 C 220.539062 210.472656 222.179688 210.515625 223.820312 210.5625 C 224.933594 210.597656 226.042969 210.625 227.160156 210.660156 C 229.886719 210.738281 232.617188 210.8125 235.34375 210.886719 C 235.34375 211.132812 235.34375 211.378906 235.34375 211.632812 C 231.96875 211.78125 228.597656 211.914062 225.21875 212.035156 C 224.074219 212.078125 222.921875 212.125 221.777344 212.175781 C 220.128906 212.246094 218.472656 212.304688 216.828125 212.363281 C 216.3125 212.386719 215.796875 212.410156 215.273438 212.433594 C 212.503906 212.519531 211.492188 212.46875 209.113281 210.886719 C 209.605469 210.886719 210.101562 210.886719 210.609375 210.886719 C 210.609375 210.398438 210.609375 209.902344 210.609375 209.394531 Z M 210.609375 209.394531 "/>
<path style=" stroke:none;fill-rule:nonzero;fill:rgb(46.27451%,42.745098%,34.901962%);fill-opacity:1;" d="M 71.199219 87.714844 C 71.453125 87.714844 71.695312 87.714844 71.953125 87.714844 C 71.703125 89.929688 71.457031 92.148438 71.199219 94.433594 C 67.488281 94.433594 63.785156 94.433594 59.960938 94.433594 C 59.960938 94.1875 59.960938 93.945312 59.960938 93.6875 C 64.410156 93.320312 64.410156 93.320312 68.957031 92.941406 C 68.957031 92.449219 68.957031 91.953125 68.957031 91.449219 C 69.699219 91.449219 70.441406 91.449219 71.199219 91.449219 C 71.199219 90.21875 71.199219 88.988281 71.199219 87.714844 Z M 71.199219 87.714844 "/>
</g>
</svg>
